<?xml version="1.0" encoding="UTF-8"?>
<svg id="_레이어_2" data-name="레이어 2" xmlns="http://www.w3.org/2000/svg" viewBox="0 0 399.07 25.03">
  <defs>
    <style>
      .cls-1 {
        fill: #f3eff7;
      }
    </style>
  </defs>
  <g id="_레이어_1-2" data-name="레이어 1">
    <g>
      <path class="cls-1" d="m0,11.48v-6.11c0-1.53.64-2.81,1.93-3.84C3.22.51,4.82,0,6.72,0s3.55.52,4.76,1.56c1.22,1.04,1.83,2.28,1.83,3.73v6.54c0,1.02-.39,2.31-1.16,3.86l-4.47,8.79h-2.99l4.6-8.79c-.3.3-.63.54-1.01.73-.37.18-.71.29-1.01.33-.3.04-.6.06-.89.08-.29.02-.51.02-.65,0-1.38,0-2.68-.52-3.9-1.55-1.23-1.03-1.84-2.3-1.84-3.8Zm2.67-5.93v6.14c0,.71.38,1.37,1.15,2s1.73.94,2.9.94,2.07-.34,2.82-1.02,1.12-1.37,1.12-2.08v-6.03c0-.85-.35-1.61-1.06-2.28-.71-.67-1.67-1.01-2.88-1.01s-2.2.34-2.94,1.01c-.74.67-1.11,1.45-1.11,2.33Z"/>
      <path class="cls-1" d="m15.58,15.3v-1.31h10.98v1.31h-5.1v1.4h-1.72v-1.4h-4.16Zm6.58-2.44h-3.05c-.86,0-1.58-.24-2.14-.72-.56-.48-.84-1.15-.84-2s.28-1.51.85-2.01,1.28-.75,2.13-.75h3.05c.86,0,1.58.25,2.15.75s.85,1.17.85,2.01-.28,1.51-.85,2-1.28.73-2.15.73Zm-4.38,5.71v-1.26h11.77v3.74h-10.04v1.23h1.7c4.13,0,7.03-.08,8.69-.25v1.28c-1.46.16-4.35.24-8.67.24h-3.45v-3.76h10.02v-1.21h-10.02Zm1.53-7.02h2.43c.51,0,.93-.12,1.26-.35.34-.23.51-.59.51-1.07,0-.43-.13-.77-.39-1.02-.26-.25-.64-.38-1.15-.38h-2.43c-1.16,0-1.73.47-1.73,1.4,0,.42.13.76.39,1.02.26.26.63.4,1.11.4Zm6.43-.07v-1.43h2.07v-2.56h1.74v9.14h-1.74v-5.15h-2.07Z"/>
      <path class="cls-1" d="m48.28,24.48h-2.7V3.57l-4.79,2.49-1.03-2.01,6.35-3.65h2.17v24.08Z"/>
      <path class="cls-1" d="m68.9,4.84v15.22c0,1.54-.63,2.72-1.91,3.56-1.27.84-2.8,1.26-4.58,1.26s-3.28-.42-4.55-1.26-1.91-2.02-1.91-3.56V4.84c0-1.54.63-2.72,1.89-3.56C59.11.45,60.63.03,62.41.03s3.31.42,4.58,1.26c1.27.84,1.91,2.02,1.91,3.56Zm-2.67,14.55V5.5c0-2.17-1.27-3.26-3.81-3.26s-3.78,1.08-3.78,3.26v13.89c0,2.17,1.26,3.26,3.78,3.26s3.81-1.09,3.81-3.26Z"/>
      <path class="cls-1" d="m80.71,10.18v2.34c0,.66-.23,1.23-.7,1.7-.47.47-1.02.81-1.68,1.02-.65.21-1.34.31-2.05.31s-1.4-.1-2.05-.31c-.65-.21-1.21-.55-1.68-1.02-.47-.47-.7-1.04-.7-1.7v-2.34c0-.65.23-1.21.7-1.68.47-.47,1.02-.81,1.68-1.02.65-.21,1.34-.31,2.05-.31s1.4.1,2.05.3c.65.2,1.21.54,1.68,1.01.47.47.7,1.04.7,1.7Zm-1.72,1.94v-1.52c0-.52-.16-.94-.48-1.26-.32-.32-.67-.53-1.04-.62-.37-.1-.77-.14-1.2-.14-.31,0-.61.03-.89.08s-.56.15-.85.29c-.29.14-.52.35-.69.63-.17.28-.26.62-.26,1.01v1.52c0,.38.09.71.26.99.17.28.4.49.68.63.28.14.57.24.86.3.29.06.59.09.89.09s.6-.03.88-.09c.29-.06.57-.16.86-.3.29-.14.52-.35.7-.63s.27-.61.27-.99Zm-5.32,5.94v-1.35h11.65v4.01h-9.85v1.48h2.39c3.51,0,6.14-.08,7.86-.25v1.35c-1.94.16-4.33.24-7.16.24h-4.9v-4.14h9.85v-1.33h-9.85Zm11.65-2.36h-1.74V7.49h1.74v8.22Z"/>
      <path class="cls-1" d="m107.39,5.72v3.34c0,.95-.33,1.76-1,2.43-.67.67-1.46,1.16-2.39,1.46-.93.3-1.91.45-2.93.45s-2.01-.15-2.93-.45c-.93-.3-1.73-.78-2.39-1.46-.67-.67-1-1.48-1-2.43v-3.34c0-.93.33-1.73,1-2.41.67-.67,1.46-1.16,2.39-1.46.93-.3,1.91-.45,2.93-.45s2,.14,2.93.43c.93.29,1.73.77,2.39,1.44.66.67,1,1.48,1,2.43Zm-2.45,2.77v-2.16c0-.74-.23-1.34-.69-1.79s-.95-.75-1.48-.89-1.1-.2-1.71-.2c-.45,0-.87.04-1.28.12-.4.08-.81.22-1.21.42-.41.2-.74.5-.99.9-.25.4-.37.88-.37,1.44v2.16c0,.55.12,1.02.37,1.42s.57.7.97.9c.4.2.81.34,1.23.43s.84.13,1.28.13.85-.04,1.26-.13c.41-.09.82-.23,1.23-.43.41-.2.74-.5,1-.9s.38-.87.38-1.42Zm-7.6,8.49v-1.93h16.65v5.73h-14.07v2.12h3.42c5.02,0,8.76-.12,11.23-.36v1.92c-2.77.22-6.18.34-10.22.34h-7v-5.92h14.07v-1.9h-14.07Zm16.65-3.37h-2.48V1.87h2.48v11.74Z"/>
      <path class="cls-1" d="m116.87,22.51v-1.46h3.1v-3.08h1.72v3.08h4.58v-3.08h1.73v3.08h3.08v1.46h-14.21Zm9.33-5.47h-4.46c-1.1,0-2.06-.47-2.89-1.4-.83-.93-1.24-2.12-1.24-3.55s.41-2.55,1.22-3.43c.81-.88,1.78-1.32,2.89-1.32h4.5c1.11,0,2.07.44,2.89,1.32s1.22,2.02,1.22,3.43-.41,2.64-1.23,3.56c-.82.93-1.78,1.39-2.9,1.39Zm-4.14-1.43h3.84c.8,0,1.45-.34,1.95-1.02.51-.68.76-1.5.76-2.47s-.25-1.78-.75-2.4c-.5-.62-1.15-.94-1.96-.94h-3.84c-.81,0-1.46.31-1.97.94-.51.62-.76,1.42-.76,2.4s.26,1.79.77,2.47,1.16,1.02,1.96,1.02Z"/>
      <path class="cls-1" d="m141.91,10.18v2.34c0,.66-.23,1.23-.7,1.7-.47.47-1.02.81-1.68,1.02-.65.21-1.34.31-2.05.31s-1.4-.1-2.05-.31c-.65-.21-1.21-.55-1.68-1.02-.47-.47-.7-1.04-.7-1.7v-2.34c0-.65.23-1.21.7-1.68.47-.47,1.02-.81,1.68-1.02.65-.21,1.34-.31,2.05-.31s1.4.1,2.05.3c.65.2,1.21.54,1.68,1.01.47.47.7,1.04.7,1.7Zm-1.72,1.94v-1.52c0-.52-.16-.94-.48-1.26-.32-.32-.67-.53-1.04-.62-.37-.1-.77-.14-1.2-.14-.31,0-.61.03-.89.08s-.56.15-.85.29c-.29.14-.52.35-.69.63-.17.28-.26.62-.26,1.01v1.52c0,.38.09.71.26.99.17.28.4.49.68.63.28.14.57.24.86.3.29.06.59.09.89.09s.6-.03.88-.09c.29-.06.57-.16.86-.3.29-.14.52-.35.7-.63s.27-.61.27-.99Zm-5.32,5.94v-1.35h11.65v4.01h-9.85v1.48h2.39c3.51,0,6.14-.08,7.86-.25v1.35c-1.94.16-4.33.24-7.16.24h-4.9v-4.14h9.85v-1.33h-9.85Zm11.65-2.36h-1.74V7.49h1.74v8.22Z"/>
      <path class="cls-1" d="m160.92,7.55h1.72v8.37h-8.59V7.55h1.73v2.76h5.14v-2.76Zm-5.56,15.86v-5.84h11.57v5.84h-11.57Zm.42-8.94h5.14v-2.73h-5.14v2.73Zm1.3,4.46v3.12h8.12v-3.12h-8.12Zm9.85-2.63h-1.74V7.49h1.74v3.62h2.22v1.45h-2.22v3.76Z"/>
      <path class="cls-1" d="m190.13,3.49l-7,20.81h-2.85l7.17-20.81h-10.38V1.31h13.06v2.17Z"/>
      <path class="cls-1" d="m193.69,22.49h-1.77l4.21-9.43v-5.52h1.73v5.51l4.24,9.45h-1.77l-3.35-7.26-3.3,7.26Zm12.16.81h-1.72V7.49h1.72v15.81Z"/>
      <path class="cls-1" d="m238.18,1.16v6.04c0,1.73-.21,3.43-.63,5.1-.42,1.67-.99,3.19-1.71,4.57-.72,1.38-1.47,2.61-2.26,3.69-.79,1.08-1.64,2.06-2.55,2.96h-3.28c3.62-3.45,6-7.2,7.15-11.24h-8.89v-2.2h9.35c.17-.96.25-1.84.25-2.65V3.36h-9.57V1.16h12.15Zm6.87,23.52h-2.58V.94h2.58v9.02h3.46v2.17h-3.46v12.55Z"/>
      <path class="cls-1" d="m263.37,5v14.12c0,1.4-.67,2.5-2.01,3.32s-2.82,1.23-4.43,1.23-3.09-.41-4.42-1.23c-1.33-.82-2-1.92-2-3.32V5c0-1.4.66-2.5,2-3.32,1.33-.82,2.8-1.23,4.42-1.23,1.03,0,2.02.16,2.97.48.95.32,1.77.84,2.45,1.55.68.72,1.02,1.55,1.02,2.51Zm-2.6,13.49V5.63c0-.76-.22-1.38-.66-1.86-.44-.48-.93-.8-1.47-.96s-1.11-.24-1.72-.24c-1.01,0-1.9.24-2.67.71-.77.47-1.15,1.25-1.15,2.35v12.86c0,1.08.38,1.86,1.15,2.34.77.48,1.66.72,2.67.72s1.88-.24,2.67-.72c.78-.48,1.17-1.26,1.17-2.34Zm9.6,6.16h-2.58V.94h2.58v23.72Z"/>
      <path class="cls-1" d="m276.91,16.88h-3.08l9.4-10.76V.96h2.6v5.13l9.37,10.79h-3.06l-7.6-8.61-7.63,8.61Zm-2.98,6.59v-2.22h21.19v2.22h-21.19Z"/>
      <path class="cls-1" d="m297.87,23.47v-2.22h21.19v2.22h-21.19Zm6.16-6.57h-4.42V1.16h17.66v2.17h-15.06v4.14h15.06v2.15h-15.06v5.08h2.22c2.2,0,4.66-.13,7.38-.38,2.71-.25,4.74-.58,6.09-.99v2.2c-1.28.37-3.32.69-6.11.96-2.8.27-5.38.4-7.76.4Z"/>
      <path class="cls-1" d="m330.36,23.16V1.16h13.06v22.33h-2.58v-2.27c-1.03.54-2.39,1-4.08,1.38-1.69.38-3.27.57-4.74.57h-1.67Zm2.58-2.25h.63c1.09,0,2.35-.18,3.76-.54,1.41-.36,2.58-.81,3.51-1.35V3.34h-7.91v17.58Zm17.25,3.74h-2.58V.94h2.58v23.72Z"/>
      <path class="cls-1" d="m353.85,3.36V1.16h9.42v11.37h-6.77v8.29c1.31-.03,2.78-.21,4.4-.52,1.62-.31,2.91-.74,3.89-1.27v2.27c-1.06.56-2.57,1-4.52,1.33-1.95.33-3.74.49-5.35.49h-.94v-12.76h6.77V3.36h-6.9Zm14.93,21.29h-2.5V.94h2.5v9.04h3.23V.94h2.5v23.72h-2.5v-12.5h-3.23v12.5Z"/>
      <path class="cls-1" d="m377.49,14.98v-1.84h9.5v-1.31h-3.84c-2.48,0-3.71-.95-3.71-2.85,0-.89.34-1.58,1.02-2.07.68-.49,1.61-.73,2.79-.73h10.05c2.63,0,3.94.94,3.94,2.8s-1.26,2.85-3.76,2.85h-3.92v1.31h9.5v1.84h-21.57Zm.58-9.9v-1.82h20.46v1.82h-20.46Zm8.54,19.96h-7.27v-5.4h15.33v-1.44h-15.33v-1.84h17.94v5.1h-15.33v1.74h4.8c5.3,0,9.02-.14,11.14-.43v1.82c-2.14.3-5.89.45-11.27.45Zm-2.58-15.13h8.61c.34,0,.6,0,.78-.03.19-.02.39-.05.61-.1.22-.05.38-.15.48-.29s.15-.32.15-.54-.05-.39-.14-.53-.26-.23-.49-.28c-.24-.05-.43-.08-.59-.09s-.43-.01-.8-.01h-8.61c-.45,0-.8,0-1.02.03-.23.02-.45.1-.66.24s-.32.36-.32.64c0,.24.05.42.14.56.09.14.25.23.48.29s.43.09.59.1.43.01.78.01Zm-1.69-7.68V.38h11.92v1.84h-11.92Z"/>
    </g>
  </g>
</svg>