<?xml version="1.0" encoding="UTF-8"?>
<svg id="_레이어_2" data-name="레이어 2" xmlns="http://www.w3.org/2000/svg" viewBox="0 0 676.22 957.3">
  <defs>
    <style>
      .cls-1 {
        fill: #fff;
      }
    </style>
  </defs>
  <g id="_레이어_3" data-name="레이어 3">
    <g>
      <path class="cls-1" d="m36.13,9.71c.75-.6,1.49-1.2,2.24-1.79,8.7-6.92,20.93-1.72,23.67,7.25.18.58.37,1.16.57,1.78.78-.25.7-.9.8-1.36,1.54-6.51,7.54-11.19,13.97-11.47,10.08-.43,16.93,8.27,14.68,16.94-1.09,4.2-3.82,7.03-8.14,8.16-.64.17-1.36.05-2.12.64,2.92,1.92,5.69,3.85,9.14,4.48.77.14,1.94-.05,2.05.94.12,1.1-1.08,1.28-1.89,1.49-3.16.83-5.96.22-8.22-2.28-.36-.4-.58-.93-1.22-1.24-.57.52-.69,1.45-1.44,1.86-.24.13-.49.27-.77.18-.32-.11-.36-.39-.3-.67.29-1.27.11-2.42-.66-3.51-.9-1.27-2.06-2.18-3.51-2.73-3.12-1.19-6.31-.56-8.33,1.66-2.41,2.66-2.87,7.08-1.06,10.17,1.15,1.97,3.31,2.76,5.28,1.97.6-.24,1.06-.61,1.37-1.18.45-.82.25-1.22-.68-1.39-.74-.14-1.49-.22-2.21-.42-.88-.25-1.61-.77-2.07-1.59-.7-1.24-.24-2.5,1.07-3.01,2.2-.85,5.04.49,6.1,2.89.97,2.19.16,4.32-2.11,5.52-3.01,1.6-6.24.67-7.96-2.29-.31-.53-.56-1.08-.88-1.69-.75.27-.74.98-.98,1.47-1.43,2.85-4.16,4.07-7.21,3.18-2.28-.66-3.66-2.45-3.47-4.48.21-2.13,2.16-4.18,4.25-4.42.47-.06.96-.04,1.44,0,.87.06,1.63.37,1.93,1.27.32.94.02,1.77-.64,2.45-.86.87-1.96,1.21-3.15,1.32-.54.05-1.15.06-1.25.79-.08.61.29,1.04.71,1.41.98.85,3.27.85,4.44-.02.61-.45,1.13-1,1.53-1.65,1.96-3.19.98-8.35-2.01-10.64-3.06-2.35-7.75-1.88-10.44,1.09-1.09,1.2-1.96,2.5-1.32,4.26.09.25.16.56-.11.75-.33.23-.62.02-.94-.11-.72-.29-.84-1.7-1.87-1.2-.62.31-1.01,1.09-1.52,1.64-1.49,1.6-2.98,3.19-4.61,4.93.25.61,1.36.75,1.69,1.59.1.26.2.54-.03.75-.13.11-.41.19-.55.12-1.11-.49-2.13-.35-3.12.3-1.22.8-2.29,1.74-2.94,3.08-1.37,2.8-1.5,5.57.47,8.13,2.02,2.64,4.86,3.42,8.05,3.05,1.15-.13,2.28-.45,3.23-1.21,1.59-1.26,2.19-3,1.67-4.93-.15-.56-.45-.99-.92-1.31-1.01-.7-1.64-.43-1.76.81-.09.9-.2,1.77-.63,2.57-.36.69-.85,1.24-1.59,1.53-1.2.47-2.18.03-2.64-1.17-.96-2.49.52-5.34,3.21-6.22,2.45-.8,4.77.55,5.51,3.2.88,3.14-.23,5.71-3.12,7.24-.46.24-.95.45-1.62.78.9.48,1.62.83,2.31,1.25,2.98,1.82,3.63,6.34,1.28,8.94-1.05,1.16-2.38,1.65-3.9,1.19-1.87-.57-3.29-1.71-3.77-3.7-.16-.65-.15-1.37-.05-2.04.28-1.85,2.05-2.5,3.54-1.32.98.78,1.35,1.85,1.45,3.06.05.65-.1,1.52.88,1.58.85.05,1.37-.57,1.7-1.28.74-1.59.08-3.87-1.3-5.02-2.2-1.84-7.88-2-10.85.9-3.07,3.02-2.26,7.82-.38,10.17,1.24,1.54,2.75,2.71,4.95,2.21.34-.08.72-.14.92.21.25.43,0,.81-.3,1.09-.45.41-.95.76-1.4,1.12.08.81.77.98,1.22,1.37,2.35,2.04,3.26,5.96,2.03,8.86-.13.31-.29.63-.51.88-.52.6-1.15.49-1.39-.29-.22-.71-.27-1.48-.47-2.2-.67-2.5-2.55-5.84-4.55-8.18-.37.03-.4.32-.4.58-.07,6.15-6.49,11.4-13.73,10.18-2.21-.37-4.13-1.41-6.1-2.35l.02.02c-1.13-1.54-2.62-2.76-3.6-4.46-4.57-7.93-.55-18.47,7.69-21.54.93-.35,1.88-.66,3.04-1.06-.84-.66-1.6-.76-2.29-.95-6.02-1.68-10.51-8.74-10.35-14.37.13-4.49,1.69-8.13,4.92-11.1,4.48-4.12,11.43-4.4,16.29-.76.83.62,1.6,1.32,2.11,2.22.61,1.09,1.45,1.34,2.58,1.03.66-.18,1.35-.25,1.99-.46,1.59-.53,2.67-2.16,2.6-3.77-.02-.36-.11-.64-.43-.87-1.52-1.06.27-.74.54-1.23-.82-.73-1.79-1.35-2.63-2.11-4.59-4.11-4.35-11.32-1.87-15.32.43-.69.99-1.32,1.18-2.15l-.02.02Zm26.73,22.2c-.14-1.57-.33-3.13-.42-4.7-.16-2.81-.41-5.6-.96-8.35-.85-4.27-2.88-7.74-6.68-10.15-6.02-3.83-13.81-2.58-18.3,2.96-4.88,6.03-1.67,13.42,3.36,15.91,4.42,2.19,9.62.28,11.44-4.25,1.44-3.59-.97-7.87-4.78-8.43-2.14-.31-3.72.73-4.91,2.38-1.02,1.42-.9,2.95-.07,4.46.2.37.69.64.57,1.34-1.16-.78-1.71-1.74-1.88-2.95-.56-4.05,3.22-7.46,7.26-6.54,4.63,1.05,7.18,6.07,5.39,10.65-.32.81-.72,1.59-1.07,2.35.16.12.21.2.26.2.27.01.54.03.81,0,2.8-.34,5.27.45,7.5,2.12,1.07.8,1.57,2.06,2.48,3,.05.2.04.51.16.57.62.33.66-.3.79-.6,1.83-4.12,5.17-5.59,9.45-5.44.33.01.68.11,1.06-.37-.7-.99-1.33-2.1-1.73-3.34-1.37-4.16,1.83-10.63,8.02-9.76,3.43.48,5.64,3.73,4.73,7.07-.11.41-.22.89-.84,1.07.04-.34.05-.54.09-.73.75-3.27-1.22-5.94-4.5-6.11-3.75-.2-6.78,3.59-5.9,7.38,1.03,4.39,5.7,7.09,10.02,5.8,4.21-1.26,7.25-5.21,7.39-9.61.14-4.36-3.04-8.96-7.54-10.8-8.97-3.66-17.88,2.11-19.55,10.3-.7,3.44-.86,6.92-.85,10.41,0,1.44-.02,2.88-.81,4.17Zm-26.72,27.95c.38-.08.84.03,1.14-.61-4.86-1.97-6.71-5.8-6.36-10.82-.15-.06-.21-.1-.27-.1-.72.06-1.2.61-1.8.91-3.89,2-9.04.16-10.75-3.85-1.32-3.09-.08-6.66,2.8-8.11,1.7-.86,3.58-.67,4.76.51-.24-.03-.44-.01-.63-.07-2.12-.69-3.79.05-5.06,1.72-1.33,1.75-1.4,3.67-.36,5.6,1.65,3.08,5.91,4.18,8.91,2.32,4.21-2.61,5.27-8.47,2.18-12.37-3.96-5-11.13-6.45-16.54-.35-7.24,8.16-2.86,20.85,7.82,23.17,3.83.83,7.73.97,11.62,1.22.92.06,1.97-.21,2.56.86-4.73.03-9.43.32-14.09,1.21-9.99,1.93-15.53,14.52-7.98,23.13,3.78,4.3,8.69,5.31,13.5,2.48,6.05-3.56,6.17-10.84,2.13-14.22-2.72-2.27-6.06-2.51-8.78-.24-1.9,1.58-2.53,4.17-1.53,6.31,1.08,2.31,3.01,3.19,5.75,2.62.2-.04.4-.12.55.1-1.56,1.07-3.28,1.18-4.93.29-2.99-1.6-4.08-5.43-2.43-8.54,2.01-3.81,6.99-5.28,10.84-3.23.52.28.9.87,1.72.77.3-.98-.15-1.98.02-2.99.57-3.39,2.22-5.99,5.22-7.7Zm-1.88-19.1c.28-.1.45-.1.51-.19.21-.27.39-.55.56-.85.86-1.51.71-1.74-1.35-1.94.1.99.19,1.96.29,2.97Zm7.24-10.76c.44,1.75.54,1.99.94,1.87.73-.22,1.48-.51,1.82-1.48-.95-.13-1.74-.25-2.75-.39Z"/>
      <path class="cls-1" d="m14.36,925.61c-.4-.47-.78-.95-1.21-1.4-4.34-4.54-5.52-11.85-1.88-17.87,2.16-3.57,5.2-5.94,9.22-7.07.44-.12.97-.08,1.33-.62-.61-.15-1.19-.28-1.76-.43-8.09-2.18-13.13-10.54-11.11-18.44,1.87-7.29,8.81-11.82,15.91-10.38,4.9,1,8.33,4.74,8.9,9.73.02.19.11.38.18.59.71-.05.85-.67,1.12-1.09,1.75-2.79,3.44-5.62,3.92-8.97.07-.47.13-1.02.77-1.05.57-.03.8.45,1.04.87,1.29,2.31.8,6.29-.99,8.32-.62.71-1.49,1.18-1.97,2.02.48.77,1.41,1,1.76,1.78.12.26.2.54-.03.75-.13.11-.4.18-.56.13-2.78-.9-4.3.92-5.53,2.82-3.06,4.74-.6,10.4,4.93,11.62,2.17.48,4.24.17,6.16-.89,1.89-1.04,2.63-2.81,2.16-4.88-.12-.55-.34-1.05-.77-1.42-.37-.32-.78-.61-1.29-.5-.6.12-.62.65-.66,1.13-.11,1.25-.37,2.44-1.28,3.39-.65.67-1.39,1.14-2.38.85-.9-.26-1.25-1-1.47-1.82-.61-2.2.76-4.71,3.07-5.62,2.23-.87,4.23-.14,5.41,2,1.61,2.9.71,6.28-2.16,8.03-.58.35-1.19.64-1.94,1.03.95.53,1.79.95,2.58,1.45,2.9,1.84,3.32,5.24,1.57,8.13-1.16,1.92-3.77,2.41-5.83,1.24-2.09-1.18-3.13-3.86-2.25-5.8.61-1.33,1.8-1.66,3.04-.83,1.17.78,1.64,1.96,1.9,3.28.11.57-.02,1.43.76,1.52.92.1,1.5-.58,1.83-1.39.56-1.39.31-2.69-.52-3.9-.39-.57-.92-1.01-1.51-1.37-4.3-2.65-10.71-.18-12.07,4.65-.91,3.23,1.01,7.47,4.01,8.89.85.4,1.71.43,2.61.2.33-.08.72-.19.93.16.24.41-.03.78-.27,1.12-.35.51-1.07.63-1.4,1.36,1.03,1.09,2.23,2.1,3.28,3.24,1.05,1.13,2.37,2.03,3.19,3.34.94-.4,1.01-1.34,1.7-1.69.25-.13.49-.27.77-.13.29.14.27.41.28.7.07,3.63,1.55,5.49,5.2,6.54,3.13.9,6.44-.24,8.1-2.9,1.68-2.69,1.81-5.59.7-8.49-.91-2.4-3.29-3.48-5.49-2.71-.68.24-1.25.59-1.5,1.29-.24.68-.16,1.25.74,1.29.76.04,1.49.22,2.2.49.79.3,1.46.76,1.9,1.5.78,1.3.28,2.64-1.14,3.13-2.31.79-4.96-.63-5.92-3.16-.89-2.36.08-4.48,2.5-5.49,3.01-1.26,5.91-.31,7.62,2.52.32.52.56,1.09.88,1.73.7-.32.76-.99,1.04-1.49,1.83-3.32,5.36-4.28,8.58-2.31,1.41.86,2.08,2.13,1.97,3.79-.19,2.79-3.05,5.05-5.76,4.55-1.98-.37-2.63-2.11-1.35-3.67.84-1.03,2.05-1.3,3.27-1.56.51-.11,1.23.07,1.38-.62.17-.77-.38-1.28-.97-1.67-1.53-1-3.73-.63-5.06.83-2.75,3.01-2.14,9.08,1.17,11.69,3.35,2.65,8.64,1.84,11.1-1.73.67-.97,1.2-2.01.73-3.27-.12-.31-.26-.69.07-.95.31-.24.63-.03.95.09.75.27.8,1.73,1.84,1.27.63-.28.97-1.13,1.55-1.6,2.5-2.01,5.3-2.39,8.3-1.31.52.19,1.11.44,1.06,1.09-.05.69-.73.73-1.24.87-4.48,1.28-6.7,2.39-9.52,4.81.53.54,1.24.49,1.87.62,4.87,1.02,8.5,5.39,8.76,10.36.32,6.36-2.48,10.85-8.13,13.49-5.74,2.68-11.1,1.54-15.93-2.34-2.52-2.03-4.25-4.63-4.93-7.86-.08-.4-.23-.79-.36-1.18-.02-.05-.1-.08-.2-.15-.52.61-.51,1.4-.71,2.1-2.36,8.13-12.39,13.86-21.41,9.14-7.74-4.05-9.57-13.13-5.25-19.24.72-1.02,1.59-1.89,2.65-2.55.96-.6,1.24-1.4.94-2.46-.06-.2-.1-.4-.14-.6-.7-3.04-2.05-4.14-5.13-4.24-.69-.02-1.17.23-1.57.77-.46.6-.96,1.16-1.46,1.72-4.06,4.6-10.48,4.84-15.42,2.12-.66-.36-1.23-.88-1.98-1.07,0,0,.02.02.02.02Zm71.21,9.85c.92,1.29,1.33,2.54.95,4.04-1.08,4.22-6.39,5.99-9.93,3.29-3.44-2.62-4.3-6.83-2.2-10.63.24-.44.84-.77.45-1.58-5.08.46-9.07-1.21-10.96-6.41-.21.18-.35.25-.39.36-1.58,4.33-4.86,6.05-9.26,6.08-.5,0-1.1-.22-1.49.33.05.69.53,1.13.81,1.67,1.99,3.94.47,8.77-3.41,10.78-3.29,1.71-7.44.18-8.74-3.21-.59-1.55-.42-2.76.65-4.12-.05.62-.09,1.16-.13,1.69-.11,1.75.7,3.04,2.07,4,3.25,2.28,7.83.04,8.53-4.11.86-5.17-3.73-8.51-7.8-8.57-5.71-.08-10.78,6.38-9.53,11.97,1.22,5.48,6.52,9.77,12.38,10.01,6.69.28,12.75-4.21,14.48-10.79.96-3.67,1.19-7.43,1.24-11.2.01-.92-.14-1.89.57-3,.52,1.68.68,3.13.66,4.6-.04,2.96.37,5.87.93,8.77,1.89,9.73,14.16,15.85,23.1,8.19,7.08-6.06,4.12-14.47-1.6-17.55-3.85-2.07-8.71-.72-10.94,3.03-2.06,3.45-.66,7.78,2.99,9.27,1.93.79,3.68.35,5.16-.95,1.43-1.26,2.07-2.88,1.44-4.82-.1-.3-.36-.6-.02-1.14Zm-59.18-15.36c-2.77,3.06-7.47.43-8.26-3.12-.63-2.82.5-5.74,2.91-7.37,2.75-1.86,5.6-1.95,8.56-.47,1.35.67,1.5.54,1.56-.91,0-.21,0-.41,0-.62,0-3.29,1.21-5.99,3.94-7.94.21-.15.46-.32.19-.71-1.87-.21-3.75.38-5.66.38-2.47.01-4.91.45-7.31,1-4.98,1.14-8.38,4.19-10.39,8.82-.91,2.1-1.23,4.32-.98,6.62.39,3.5,1.98,6.29,4.5,8.75,6.14,5.99,14.89,2.36,17.03-4.08,1.28-3.86-.44-8.52-4.74-10.11-3.21-1.19-6.8.32-8.05,3.42-.78,1.95-.51,3.82.89,5.38,1.3,1.44,2.99,1.86,4.87,1.3.32-.09.63-.21.94-.32Zm.02-42.45c-.44.21-.61-.06-.84-.17-2.13-1.06-3.68-.91-5.3.53-1.5,1.33-2.06,3.52-1.4,5.44,1.36,3.92,6.41,5.37,9.86,2.76,3.05-2.31,4.07-5.5,3-8.95-1.9-6.14-9.15-9.07-14.68-5.99-5.02,2.79-7.89,9.18-6.49,14.77,1.62,6.46,6.36,10.74,14.03,11.59,4.14.46,8.34.06,12.43.97.04,0,.1-.09.14-.13.06-.27-.13-.38-.32-.45-4.31-1.59-6.03-4.88-6.1-9.26,0-.44.19-.98-.47-1.27-.38.23-.78.48-1.2.71-3.76,2.1-8.05,1.18-10.6-2.26-2.81-3.78-.73-9.26,3.8-9.9,1.62-.23,3.03.24,4.13,1.61Zm8.36,39.38c-.32.79-.23,1.45-.22,2.1,0,.35.12.69.49.79.33.09.68-.01.95-.23.4-.32.3-.71.08-1.08-.31-.51-.56-1.07-1.3-1.58Zm9.87,10c-.1-.72-.77-.87-1.24-1.2-.27-.19-.68-.36-.89.02-.19.33-.28.76-.29,1.15,0,.39.33.57.7.55.61-.02,1.22-.04,1.72-.53Z"/>
      <path class="cls-1" d="m657.59,870.49c.46.51.88,1.05,1.37,1.52,4.22,3.99,6.67,11.73,1.55,19.17-2.15,3.13-5.06,5.15-8.73,6.08-.39.1-.78.22-1.61.46,1.28.42,2.19.71,3.1,1,6.86,2.22,13.4,11.85,8.32,21.3-3.06,5.69-8.06,8.04-14.43,7.13-2.95-.42-5.45-1.92-7.11-4.45-.79-1.21-1.7-1.43-2.94-1.09-.2.05-.4.09-.6.15-2.74.72-3.94,2.36-3.92,5.19,0,1.1.79,1.53,1.49,2.04,2.69,1.97,4.31,4.59,4.68,7.89.68,6.12-1.64,10.6-6.84,13.62-8.5,4.94-19.36.27-22.05-9.24-.13-.45-.11-.96-.61-1.37-.35,1.13-.65,2.22-1.03,3.28-3.43,9.51-16.5,13.98-24.92,5.4-4.47-4.56-4.67-12.71-.89-16.96,1.49-1.68,3.22-2.95,5.42-3.52.72-.18,1.5-.19,2.36-.83-2.88-1.89-5.65-3.68-8.98-4.39-.27-.06-.54-.08-.81-.12-.59-.11-1.37-.04-1.41-.86-.04-.75.71-.94,1.25-1.19,2.56-1.18,6.38-.49,8.42,1.49.58.56,1.16,1.12,1.81,1.75.6-.6.76-1.52,1.54-1.9.25-.13.5-.26.78-.14.3.13.35.42.25.69-.39.94-.44,1.85.11,2.76.72,1.18,1.5,2.32,2.79,2.94,3.77,1.82,6.34,1.83,9.28-.86,2.67-2.44,3.2-7.21,1.4-10.28-1.11-1.9-2.97-2.66-5.1-2.13-.71.18-1.25.57-1.59,1.2-.4.75-.13,1.3.74,1.48.4.08.82.07,1.23.12.62.07,1.2.28,1.73.62,1.17.75,1.79,1.96,1.51,2.9-.29.94-1.17,1.42-2.68,1.47-2.57.08-4.84-1.82-5.11-4.37-.18-1.71.5-3.11,2.02-3.97,2.27-1.29,6.24-1.65,8.41,2.06.34.58.63,1.2,1.02,1.94.55-.58.62-1.28.9-1.85,1.63-3.33,5.71-4.39,8.75-2.27,1.82,1.27,2.33,3.68,1.2,5.67-1.24,2.19-3.74,3.22-5.75,2.37-1.42-.6-1.82-1.9-.94-3.18.66-.96,1.66-1.41,2.74-1.69.46-.12.95-.12,1.42-.2.72-.13.9-.57.6-1.2-.37-.79-.98-1.29-1.86-1.47-1.72-.36-3.71.42-4.65,1.94-2.53,4.09-.91,11.25,5,12.47,3.06.63,7.12-1.36,8.44-4.19.43-.93.39-1.84.21-2.8-.13-.71.33-.81.89-.6.77.28.96,1.13,1.67,1.68,2.25-2.14,4.16-4.62,6.58-6.6-.2-.81-1.09-.83-1.45-1.4-.18-.29-.41-.57-.27-.94.17-.42.54-.38.87-.3,1.77.43,3.08-.46,4.21-1.6,2.09-2.08,2.95-4.62,2.19-7.51-.78-2.98-2.81-4.8-5.84-5.42-2.82-.58-5.46-.34-7.55,1.95-1.14,1.25-1.25,2.68-.69,4.22.2.54.54.96,1.06,1.2.69.32,1.21.22,1.37-.62.09-.47.15-.95.26-1.41.18-.74.41-1.46.9-2.05.64-.77,1.41-1.34,2.49-1.06,1.08.27,1.5,1.12,1.68,2.12.41,2.38-1.47,4.98-3.94,5.46-2.24.43-3.89-.43-4.83-2.52-1.43-3.15-.38-6.2,2.67-7.87.58-.32,1.31-.36,1.84-.98-.89-.5-1.82-.75-2.61-1.3-2.82-1.99-3.39-5.82-1.22-8.52,1.24-1.54,3.2-1.94,5.21-1.05,2.01.89,3.28,3.16,2.88,5.17-.2,1-.64,1.84-1.73,2.08-1.08.24-1.86-.33-2.47-1.13-.64-.84-.87-1.85-1.05-2.87-.09-.52,0-1.2-.72-1.31-.67-.11-1.17.32-1.56.82-.83,1.08-.71,3.16.21,4.44,1.13,1.57,2.75,2.24,4.57,2.46,3.37.42,7.63-1.07,8.98-5.26,1.11-3.42-.68-7.68-3.94-9.22-.78-.37-1.56-.47-2.39-.27-.33.08-.71.11-.86-.31-.13-.37.04-.69.29-.92.45-.41.94-.77,1.4-1.14-.1-.67-.67-.87-1.07-1.21-2.43-2.03-3.44-5.37-2.48-8.33.11-.32.23-.65.38-.95.22-.42.44-.94,1-.91.75.04.72.74.81,1.24.63,3.47,2.44,6.37,4.4,9.2.11.16.28.28.53.51.46-.61.43-1.31.56-1.94,1.18-5.67,6.79-9.54,12.54-8.87,2.53.3,4.75,1.21,6.95,2.32l-.02-.02Zm-20.95,27.33c.64-.53,1.32-.6,2-.58,2.54.07,5.06-.23,7.58-.47,5.64-.54,10.49-2.4,13.51-7.67,3.09-5.39,2.22-12.56-2.29-16.83-6-5.69-13.02-3.41-16.42,1.77-2.54,3.88-1.53,8.84,2.31,11.41,2.18,1.46,4.53,1.54,6.8.25,2.14-1.21,3.23-3.06,2.96-5.63-.36-3.32-3.68-5.19-6.68-3.72-.38.19-.66.64-1.3.57.21-.3.29-.5.44-.62,1.97-1.59,4.22-1.74,6.29-.43,1.98,1.25,3.21,4.17,2.7,6.44-1.32,5.87-7.74,7.13-11.56,5.04-.61-.33-1.1-.93-1.92-1.07.65,5.42-1.04,9.43-6.23,11.45.16.41.44.47.69.57,3.9,1.6,5.53,4.68,5.69,8.72.01.34,0,.69.03,1.03.06.62.38.86.97.58.43-.21.84-.46,1.27-.67,2.55-1.29,5.07-1.04,7.46.35,4.4,2.55,4.92,8.3,1.06,11.16-1.96,1.45-3.8,1.44-5.75-.04.26-.25.51-.04.76.03,3.25.88,5.93-1.07,6.09-4.42.18-3.78-3.28-6.73-7.08-6.04-3.96.72-6.98,5.05-6.31,9.03,1.24,7.36,10.15,10.97,16.13,6.52,1.32-.98,2.51-2.14,3.42-3.52,5.75-8.72.15-18.31-6.66-20.85-3.05-1.14-6.24-1.57-9.47-1.66-2.19-.07-4.34-.36-6.49-.69Zm-27.51,28.24c.45.87.34,1.57.41,2.24.39,3.46.47,6.96,1.21,10.39.76,3.55,2.45,6.47,5.24,8.82,6.38,5.37,16.2,3.73,20.59-3.28,3.57-5.72.22-12.25-4.05-14.47-3.57-1.85-8.1-.95-10.59,2.17-2.13,2.68-1.85,6.72.63,8.96,1.84,1.67,4.23,1.94,6.25.72,2.21-1.34,2.81-3.06,2.03-5.81-.05-.19-.16-.38.01-.57,1.15,1.34,1.41,2.2,1.13,3.64-.83,4.15-5.68,6.19-9.38,3.96-3.73-2.25-5.01-6.89-2.99-10.75.28-.53.8-.94.84-1.73-5.33.72-9.36-1.03-11.54-6.38-1.94,5.34-5.86,7.16-10.94,6.97-.01.71.42,1.01.66,1.41,1.44,2.4,1.63,4.89.57,7.47-1.51,3.68-6.4,6.52-10.65,3.08-2.13-1.73-2.62-4.43-1.14-6.4.25.33.04.66,0,.98-.28,2.75,1.19,4.82,3.86,5.44,2.98.69,6.11-1.66,6.64-4.92.81-4.96-3.53-8.68-8.24-8.53-5.5.18-10.16,6.63-9.02,12.04,1.37,6.45,8.64,10.74,14.7,9.79,6.71-1.05,11.36-5.72,12.45-12.45.57-3.52.81-7.07.84-10.63,0-.64-.19-1.35.47-2.15Zm28.45-9.27c-.59.2-.75.76-1.04,1.18-.23.33-.5.73-.14,1.09.4.4.98.55,1.48.29.42-.21.29-.72.18-1.09-.15-.48-.01-1.07-.48-1.46Zm-9.48,9.77c.48.52,1.03.51,1.55.57.34.03.69,0,.85-.36.18-.41,0-.79-.25-1.11-.22-.3-.57-.35-.9-.18-.47.24-.98.43-1.26,1.09Z"/>
      <path class="cls-1" d="m657.18,31.07c.5.56.99,1.14,1.51,1.67,5.62,5.67,5.8,14.49.48,20.48-2.42,2.72-5.39,4.38-9.41,5.16,1.14.3,1.82.48,2.5.65,9.32,2.31,15.8,14.66,7.9,24.29-4.01,4.89-11.73,6.55-17.22,2.58-2.25-1.62-3.79-3.73-4.43-6.46-.13-.57-.06-1.23-.71-1.87-1.9,2.97-3.91,5.79-4.45,9.35-.1.69.14,1.73-.91,1.79-.91.05-1.17-.89-1.32-1.6-.68-3.22-.69-6.29,2.2-8.62.41-.33.94-.59,1.08-1.22-.57-.47-1.15-.92-1.71-1.41-.21-.18-.32-.46-.22-.74.11-.31.38-.36.67-.3,3.21.63,4.88-1.38,6.04-3.82,2.47-5.19-.95-10.56-6.71-10.73-1.59-.05-3.16,0-4.61.76-2.07,1.07-3.02,3.25-2.34,5.33.18.54.42,1,.92,1.31.99.61,1.67.3,1.86-.87.07-.4.05-.82.12-1.23.18-1.06.71-1.92,1.59-2.54,1.21-.85,2.43-.51,3.04.82.99,2.15-.12,4.87-2.48,6.04-2.36,1.18-4.5.5-5.73-1.81-1.73-3.28-.66-6.63,2.64-8.34.47-.25,1.07-.26,1.48-.85-.68-.32-1.35-.59-1.99-.93-2.7-1.48-3.78-4.08-2.93-6.95.62-2.06,2.06-3.37,3.86-3.48,1.94-.12,3.98,1.13,4.79,2.94.42.95.65,1.94.35,3-.55,1.9-2.11,2.41-3.59,1.13-.93-.8-1.39-1.83-1.52-3.05-.06-.61.25-1.55-.8-1.6-.91-.04-1.5.58-1.82,1.42-.7,1.83-.01,3.93,1.67,5.08,1.05.71,2.24,1.04,3.46,1.22,4.23.61,8.18-2.1,9.08-6.21.69-3.17-1.44-7.24-4.42-8.49-.81-.34-1.59-.34-2.4-.04-.33.12-.69.2-.89-.2-.17-.35-.02-.7.22-.94.47-.48,1-.9,1.73-1.54-1.74-.95-2.76-2.59-4.19-3.82-.31-.27-.65-.51-.94-.79-.53-.52-.95-1.35-1.57-1.55-.85-.27-.95,1-1.62,1.32-.31.15-.61.41-.95.24-.5-.27-.27-.71-.12-1.07.41-1,.08-1.86-.44-2.72-1.86-3.11-5.8-4.65-9.04-3.57-4.21,1.4-5.62,5.5-5.26,9,.13,1.23.51,2.41,1.23,3.45,1.13,1.63,3.01,2.28,4.89,1.7.54-.17,1-.45,1.33-.91.65-.9.42-1.51-.67-1.73-.67-.14-1.35-.21-2.01-.4-.96-.28-1.68-.91-2.13-1.81-.58-1.18-.24-2.14.94-2.72,2.11-1.02,4.83.07,6.06,2.42,1.15,2.18.4,4.66-1.77,5.82-3.09,1.66-6.39.73-8.15-2.3-.31-.53-.56-1.09-.89-1.74-.74.47-.86,1.25-1.21,1.86-1.65,2.85-4.87,3.81-7.8,2.29-3.3-1.71-3.51-5.85-.38-7.86,1.12-.72,2.36-1.11,3.72-.75.83.22,1.59.54,1.83,1.45.24.95-.1,1.78-.79,2.42-.83.77-1.85,1.14-2.97,1.28-.58.08-1.36-.06-1.49.76-.14.88.48,1.41,1.19,1.72,1.34.57,2.68.52,3.92-.3.69-.46,1.24-1.07,1.66-1.8,2.55-4.31.15-10.53-4.62-11.97-3.27-.98-7.86,1.22-9.09,4.34-.32.81-.22,1.61-.02,2.42.07.27.05.56-.23.71-.28.16-.53,0-.76-.15-.66-.41-.96-1.14-1.47-1.69-.6,0-.81.51-1.05.88-1.66,2.61-5.73,3.69-9.06,2.5-.32-.11-.64-.26-.91-.45-.66-.48-.6-1.11.13-1.4.38-.15.8-.16,1.2-.26,3.47-.82,6.41-2.63,9.18-4.7-.08-.5-.4-.45-.65-.48-7.96-.73-13.25-10-8.36-18.38,4.55-7.79,15.16-9.42,22.11-3.56,2.48,2.1,4.23,4.63,5.13,7.76.12.42.02.99.74,1.26.26-.77.5-1.53.78-2.27,2.17-5.91,6.57-9.27,12.62-10.13,5.68-.81,10.28,1.51,13.75,6.09,3.3,4.35,3.54,13.14-2.56,17.23-.87.58-1.18,1.25-.95,2.24.16.66.23,1.35.44,2,.67,2.04,3.35,3.47,5.44,2.98.68-.16,1.04-.65,1.36-1.17,3.34-5.37,11.01-6.09,15.59-3.8.73.37,1.43.82,2.26.98,0,0-.02-.02-.02-.02Zm-49.34.43c.01-4.73-.19-9.43-1.25-14.07-1.04-4.6-3.8-7.79-7.95-9.87-5.4-2.7-11.05-1.47-15.11,2.09-4.77,4.18-5.34,10.21-1.4,15.02,3.47,4.24,9.73,4.9,13.55.25,2.55-3.1,1.69-7.85-1.85-9.71-1.81-.96-3.72-.91-5.44.29-1.71,1.19-2.26,2.94-1.76,5.08.1.43.57.81.19,1.41-.79-.6-1.05-1.42-1.17-2.31-.51-3.9,3.03-7.17,7.02-6.48,4.67.81,7.54,6.18,5.66,10.64-.39.93-.95,1.79-1.51,2.84,1.54-.1,2.95-.23,4.36.04,2.97.58,4.96,2.47,6.68,4.76.11.51-.03,1.12.69,1.48,1.93-5.17,5.93-6.79,11.08-6.35-.03-.77-.55-1.19-.84-1.71-2.52-4.42-.35-9.92,4.45-11.55,2.52-.86,6.25.8,7.32,3.2.76,1.71.86,3.39-.41,4.98-.38-.3-.18-.56-.13-.81.81-3.46-1.36-6.17-4.89-6.09-3.59.08-6.37,3.77-5.54,7.36.94,4.07,5.36,6.88,9.44,6.01,6.6-1.42,10.12-9.25,6.69-15.06-2.66-4.5-6.79-6.84-11.92-6.8-5.29.05-9.41,2.67-12.19,7.19-1.93,3.14-2.18,6.74-2.49,10.29-.19,2.25-.29,4.51-.43,6.76-.04.56-.03,1.15-.84,1.11Zm38.03,5.35c1.67-1.53,3.46-1.48,5.29-.45,2.38,1.33,3.64,4.41,2.92,7.07-1.18,4.35-6.26,6.79-10.52,5.07-.81-.33-1.49-.96-2.68-1.13.47,2.48.11,4.72-.97,6.83-1.11,2.17-2.92,3.55-5.38,4.6,5.46,1.96,7.23,5.95,6.84,11.37.52-.36.79-.55,1.06-.74,3.1-2.13,7.01-2,9.94.33,3.51,2.8,3.46,7.74-.11,10.43-2.02,1.52-4.48,1.34-6.15-.47.46-.14.75.24,1.13.36,3.01.99,5.74-.7,6.2-3.85.46-3.12-1.92-6.12-5.14-6.49-3.47-.4-6.63,1.83-7.85,5.29-2.14,6.06,4.04,13.08,11.05,12.09,6.52-.92,10.92-7.42,10.39-14.01-.53-6.6-5.4-12.3-12.75-13.27-3.46-.46-6.94-.65-10.43-.81-.71-.03-1.46.15-2.18-.25.41-.66,1.01-.56,1.52-.6,2.18-.17,4.37-.28,6.55-.48,2.53-.23,5-.74,7.42-1.56,6.36-2.16,12.56-11.15,7.41-20.18-3.01-5.26-9.15-8.63-15.51-4.61-4.45,2.81-7.18,9.51-1.43,14.38,3.4,2.88,7.62,1.39,9.43-1.13,2.07-2.87.85-6.77-2.43-7.93-1.24-.43-2.4-.13-3.6.14Zm-8.56,3.18c.14-.84.25-1.5.35-2.16.04-.28,0-.57-.3-.67-.49-.17-.93.04-1.32.32-.34.25-.25.61-.07.91.31.51.56,1.08,1.34,1.61Zm-10.05-9.84c.45.65,1,.92,1.54,1.19.32.16.67.16.89-.18.26-.4.5-.85.3-1.32-.16-.39-.57-.3-.88-.2-.57.18-1.22.02-1.85.51Z"/>
      <path class="cls-1" d="m9.03,275.4c0-44.33,0-88.65,0-132.98,0-1.42.22-2.89-.58-4.21-.07-.11-.14-.29-.1-.39.85-1.94-.52-3.06-1.59-4.25-.57-.64-.6-1.18-.03-1.79.47-.5.93-1.01,1.4-1.5.44-.47.79-.95.45-1.64-.12-.24-.25-.61-.15-.78.85-1.48-.17-2.42-.89-3.48-1.05-1.53-1.97-3.13-2.43-4.95-.47-1.88-.21-3.63,1.36-4.84,1.63-1.25,3.46-1.93,5.55-.9,1.92.95,2.87,2.4,2.83,4.58-.06,2.56-1.37,4.55-2.81,6.48-.68.91-1.45,1.69-.7,2.91.09.15.1.43.03.6-.49,1.26.22,2.05.99,2.89,1.44,1.57,1.42,1.6-.03,3.17-.84.91-1.82,1.76-1.03,3.2.08.15.03.43-.06.59-.89,1.53-.59,3.2-.59,4.83-.01,88.24,0,176.48-.04,264.72,0,2.05.41,4.08.15,6.14-.1.77.44,1.42.76,2.1.94,2,1.75,4.02,1.65,6.29-.03.69-.09,1.36-.34,2.01-.55,1.42-1.89,2.71-2.91,2.57-1.49-.21-2.41-1.23-2.97-2.55-.5-1.17-.49-2.39-.25-3.64.35-1.83,1.01-3.55,1.88-5.2.42-.8.57-1.54.4-2.53-.23-1.31.06-2.72.06-4.08,0-21.44,0-42.89,0-64.33,0-23.02,0-46.04,0-69.06Zm.88-156.94c-.9,1.14-1.21,2.23-1.24,3.39-.02.79.18,1.62,1.09,1.71.96.09,1.2-.73,1.27-1.52.1-1.24-.06-2.42-1.11-3.58Zm-.06,302.91c.82-1.36.82-2.42.7-3.49-.05-.4-.18-.85-.7-.81-.49.03-.62.47-.69.87-.19,1.09.14,2.08.7,3.44Z"/>
      <path class="cls-1" d="m13.16,535.62c-.05,2.32-.93,4.41-1.92,6.44-.4.81-.65,1.54-.48,2.52.19,1.12-.11,2.31-.11,3.47,0,89.21,0,178.43,0,267.64,0,1.02-.09,2.06.47,3.01.13.22.28.59.19.77-.84,1.67.31,2.66,1.21,3.75,1.06,1.29,1.26,1.52.06,2.52-1.69,1.41-1.05,3.33-1.6,4.97-.16.47.38.84.68,1.21,1.18,1.44,2.13,3.03,2.79,4.77,1.07,2.82.27,5.1-2.06,6.63-2,1.3-3.81.8-5.54-.38-1.63-1.11-2.2-2.77-1.85-4.68.37-2,1.39-3.71,2.53-5.35.74-1.06,1.71-2.04.83-3.48.8-1.78-.46-2.8-1.48-3.88-.73-.77-.63-1.4.08-2.11.48-.48.88-1.05,1.28-1.6.2-.27.49-.62.45-.89-.39-2.71.4-5.34.4-8.05-.07-87.77-.06-175.55-.03-263.32,0-1.97-.47-3.94.01-5.92.15-.64-.3-1.18-.57-1.72-.79-1.61-1.38-3.29-1.79-5.02-.37-1.58-.29-3.14.58-4.57,1.41-2.3,3.88-2.26,5.21.1.56.98.69,2.07.65,3.18Zm-3.21,303.03c1.01-1.19,1.21-2.4,1.04-3.71-.08-.65-.38-1.21-1.14-1.18-.74.02-1.06.59-1.13,1.23-.14,1.32.21,2.5,1.22,3.66Zm-.11-302.13c-.54,1.1-.98,2.16-.6,3.32.1.32.29.64.71.58.28-.04.48-.26.53-.54.21-1.19.24-2.35-.64-3.37Z"/>
      <path class="cls-1" d="m663.43,275.45c0,42.95.01,85.91-.03,128.86,0,3.14.32,6.27.21,9.41-.02.58.33,1.03.57,1.52.81,1.59,1.51,3.24,1.87,4.99.45,2.19.24,4.24-1.57,5.84-1.15,1.01-1.86,1.03-3.1.11-1.19-.88-1.67-2.12-1.76-3.56-.15-2.49.8-4.7,1.76-6.9.44-1.01.75-1.88.57-3.09-.22-1.51.16-3.12.16-4.69-.01-76.11,0-152.22,0-228.34,0-12.67,0-25.35,0-38.02,0-1.09.11-2.2-.52-3.2-.18-.29-.3-.68-.14-.98.67-1.26-.08-2.06-.86-2.87-.28-.3-.56-.61-.86-.88-.62-.57-.7-1.13-.07-1.75.39-.39.75-.8,1.11-1.21.51-.59.9-1.21.67-2.05-.05-.2-.14-.46-.06-.6.95-1.68-.19-2.76-1.06-3.96-1.01-1.39-1.83-2.91-2.19-4.61-.41-1.98-.27-3.82,1.63-5.12,2.08-1.42,3.99-1.53,5.93-.26,1.83,1.2,2.58,3.08,2.06,5.37-.49,2.11-1.58,3.94-2.92,5.6-.59.73-1.15,1.39-.56,2.37.03.06.08.15.05.19-.97,2.01.68,2.96,1.69,4.15.53.62.6,1.17-.03,1.79-.53.53-1,1.13-1.46,1.72-.21.26-.52.61-.48.88.37,2.84-.71,5.53-.7,8.38.12,43.64.08,87.28.08,130.92Zm-1.69-153.68c0,.11,0,.32.04.51.11.63.37,1.25,1.07,1.29.85.05,1.1-.64,1.24-1.33.04-.2.04-.4.04-.61.01-1.19-.57-2.57-1.11-2.67-.62-.11-1.3,1.34-1.28,2.8Zm1.23,299.68c.5-1.53.87-2.55.6-3.67-.08-.34-.24-.68-.63-.71-.54-.04-.67.4-.73.81-.14,1.09,0,2.14.76,3.57Z"/>
      <path class="cls-1" d="m663.43,681.87c0,44.27,0,88.54,0,132.81,0,1.43-.21,2.89.73,4.17.15.2.25.58.16.78-.78,1.61.32,2.55,1.22,3.57,1.17,1.33,1.18,1.34,0,2.69-.86.98-1.85,1.9-1.11,3.4-1.03,1.65.31,2.65,1.07,3.79.92,1.37,1.81,2.75,2.21,4.38.76,3.07-.41,5.25-3.37,6.32-2.83,1.02-6.22-1.26-6.36-4.28-.07-1.41.28-2.74.94-3.95.62-1.14,1.32-2.24,2.07-3.3.56-.8,1.22-1.52.51-2.55.63-1.96-.67-3.15-1.79-4.39-.57-.64-.59-1.13.08-1.73.56-.5,1-1.12,1.46-1.72.2-.26.52-.65.45-.89-.6-2.26.48-4.37.48-6.61-.08-88.4-.07-176.8-.03-265.21,0-1.9-.58-3.79-.01-5.7.15-.52-.3-1.03-.55-1.52-.72-1.41-1.33-2.86-1.71-4.4-.38-1.56-.44-3.13.17-4.65.49-1.22,1.39-2.12,2.71-2.25,1.4-.14,2.24.84,2.86,1.97.66,1.2.74,2.49.55,3.8-.17,1.15-.34,2.36-.93,3.35-1.8,3.03-1.8,6.38-1.8,9.71-.02,44.13-.01,88.27-.01,132.4Zm.68,153.84c0-.13.01-.27,0-.4-.1-.77-.3-1.57-1.25-1.54-.98.03-1.07.86-1.11,1.63,0,.13-.01.27.01.4.18.97.15,2.09,1.15,2.65.44.24,1.21-1.44,1.21-2.74Zm-1.16-299.65c-.87,1.38-.88,2.52-.7,3.68.05.34.22.67.64.67.42,0,.58-.35.66-.67.3-1.17.06-2.27-.6-3.68Z"/>
      <path class="cls-1" d="m328.94,951.86c.66-.76,1.13-1.28.28-1.89-.81-.57-1.82-.63-2.47-.05-.63.58-.78,1.28-.32,2.03.42.68,1.09,1.03,1.82,1.25,1.81.53,3.66.48,5.5.22,1.02-.14,1.74-.82,2.02-1.83.31-1.13-.43-1.79-1.22-2.38-2.07-1.52-4.52-1.83-6.97-2.22-5.93-.93-11.76-.03-17.54,1.06-7.94,1.5-15.76,3.54-23.51,5.85-5.59,1.66-11.33,2.55-17.15,3.07-5.72.51-11.34.21-16.95-.91-2.97-.59-5.76-1.77-8.58-2.81-2.56-.94-2.73-3.91-.29-5.51,2.45-1.62,5.23-2.37,8.21-1.92.59.09,1.2.33,1.72.64,1.55.9,1.63,2.47.16,3.45-.91.61-1.92,1.03-3.05.5.04-.21.02-.4.09-.44.69-.39,1.73-.55,1.51-1.64-.18-.89-1.13-.86-1.83-1.07-.8-.23-1.62-.27-2.44-.26-1.36.03-2.34.72-3.05,1.8-1.22,1.84-.6,3.57,1.53,4.08,2.54.61,5.13.8,7.75.42,5.31-.76,10.41-2.37,15.57-3.73,4.24-1.11,8.44-2.37,12.7-3.42,4.4-1.08,8.73-2.35,12.98-3.9,4.8-1.75,9.75-2.89,14.84-3,5.16-.12,10.26.54,14.74,3.52,1.32.88,2.86,1.3,4.32,1.88,2.16.86,4.37,1.62,6.33,2.92,1.17.77,2.32,1.65,2.24,3.21-.09,1.66-1.41,2.42-2.74,3.04-2.38,1.12-4.9,1.19-7.44.79-.6-.09-1.2-.32-1.75-.58-1.86-.87-2.64-2.24-2.14-3.69.57-1.67,2.51-2.8,4.27-2.46.82.16,1.57.51,2.2,1.06.58.51,1.12,1.1.84,1.94-.29.86-1.03.98-2.18.93Zm-69.55,3.47c.71.35,1.26.24,1.78.24,2.74.02,5.47-.13,8.2-.31,5.21-.34,10.34-1.11,15.47-1.99,4.69-.81,9.08-2.59,13.59-4.01,8.01-2.53,16.15-4.28,24.62-3.97,1.01.04,2.02.07,3.04.13-1.81-.79-3.64-1.26-5.58-1.31-4.8-.13-9.59-.03-14.33.86-7.12,1.35-14.32,2.25-21.25,4.64-8.22,2.84-16.56,5.31-25.55,5.72Zm5.45-2.25c.46-.06.93-.1,1.38-.2,9.25-1.94,18.38-4.34,27.51-6.73,8.22-2.15,16.45-4.22,25.07-3.76.22.01.54.12.68-.34-2.76-.91-5.64-1.14-8.47-1.07-4.31.11-8.57.77-12.77,1.84-5.24,1.34-10.45,2.76-15.55,4.58-5.86,2.09-11.82,3.86-17.86,5.68Z"/>
      <path class="cls-1" d="m250.54,6.79c.38-.1.64-.25.89-.23,1.63.07,3.11,1.17,3.22,2.37.11,1.22-1.17,2.24-3.04,2.45-2.53.27-4.91-.26-7.17-1.36-.54-.27-1.07-.63-1.5-1.06-1.74-1.75-1.37-4.06.91-4.98,4.52-1.82,9.14-3.33,14.04-3.71,9.31-.73,18.48.16,27.44,2.72,6.2,1.77,12.41,3.42,18.68,4.91,6.68,1.58,13.41,2.81,20.32,2.63,2.34-.06,4.64-.41,6.9-.97,1.41-.35,2.71-.97,3.83-1.91,1.04-.87,1.1-1.81.24-2.85-.44-.53-.96-1.01-1.68-1.11-2.07-.28-4.11-.19-6.06.64-.79.34-1.46.86-1.37,1.84.08.82.58,1.45,1.38,1.59.86.15,1.6-.28,2.13-.97.2-.26.05-.51-.24-.67-.26-.15-.73-.06-.7-.58.58-.47,1.17-.23,1.72.04.81.41,1,1.11.46,1.88-.89,1.26-2.12,1.93-3.69,1.85-1.5-.07-2.59-.83-3.28-2.14-.71-1.36-.23-2.73,1.3-3.63,1.77-1.04,3.73-1.39,5.74-1.19,1.92.18,3.79.64,5.4,1.79,1.83,1.31,1.95,2.84.4,4.49-.57.61-1.25,1.06-1.98,1.45-1.51.81-3.07,1.51-4.67,2.13-2.3.89-4.55,1.85-6.7,3.09-3.34,1.92-7.1,2.46-10.89,2.63-4.91.22-9.75-.48-14.36-2.1-10.68-3.76-21.72-6.23-32.6-9.29-2.37-.67-4.76-1.29-7.16-1.87-3.49-.83-7.02-1.14-10.59-.66-.27.04-.55.06-.81.12-1.92.4-2.76,1.17-2.75,2.52.01,1.43,1.39,3.16,2.83,3.39,1.29.2,2.6.16,3.87-.22.52-.16,1.11-.32,1.23-.96.14-.77-.44-1.07-.99-1.37-.23-.13-.54-.15-.73-.69Zm74.89,5.39c-.5-.57-1-.38-1.42-.33-4.47.48-8.88-.11-13.26-.82-6.44-1.05-12.63-3.08-18.78-5.21-1.75-.61-3.53-1.08-5.34-1.48-7.51-1.65-15.14-2.32-22.79-2.76-1.14-.06-2.28,0-3.42,0,1.63.71,3.35.64,5.03.89,5.02.77,9.9,2.11,14.74,3.63,5.62,1.75,11.16,3.76,17.02,4.62,2.5.37,4.98.91,7.48,1.31,4.46.71,8.93,1.44,13.46,1.32,2.43-.06,4.85-.34,7.27-1.15Zm-59.63-7.79c.56.6.98.63,1.37.73,5.38,1.38,10.7,2.94,15.91,4.84,5.42,1.98,10.98,3.39,16.57,4.73,4.34,1.04,8.73,1.72,13.21,1.54,2.4-.1,4.74-.53,7.01-1.3-1.86.15-3.7.21-5.53.05-5.12-.44-10.18-1.28-15.17-2.54-9.03-2.27-18.04-4.59-27.07-6.84-1.97-.49-3.95-1.05-6.3-1.21Z"/>
      <path class="cls-1" d="m427.19,6.92c-.86.63-2.09.76-1.79,1.94.27,1.03,1.35,1.08,2.21,1.16,1.77.18,3.57.41,4.87-1.33,1.46-1.96.95-3.74-1.42-4.37-3.24-.85-6.51-.69-9.77-.1-4.25.77-8.38,2.05-12.55,3.15-4.24,1.12-8.43,2.4-12.69,3.42-5.41,1.3-10.65,3.09-15.92,4.82-4.78,1.57-9.69,2.49-14.74,2.31-4.56-.16-8.98-.96-12.9-3.56-1.38-.91-2.99-1.35-4.53-1.93-1.99-.75-3.98-1.52-5.76-2.69-1.25-.82-2.68-1.68-2.48-3.47.2-1.83,1.71-2.52,3.22-3.09,2.43-.91,4.91-1.23,7.45-.46.52.16,1.04.35,1.53.59,1.18.58,2.09,1.43,1.99,2.84-.1,1.34-.96,2.26-2.15,2.8-1.59.72-3.09.36-4.45-.63-.63-.46-1.14-1.11-.9-1.92.28-.93,1.07-1.13,1.95-1.04.43.74-.59.64-.55,1.12.05.59.53.77.94.98,1.08.56,1.9.34,2.45-.63.51-.91.25-1.82-.86-2.37-2.1-1.05-4.36-1.19-6.61-.71-1.05.22-1.83,1-2.06,2.1-.24,1.15.62,1.73,1.44,2.25,1.71,1.08,3.62,1.6,5.59,1.93,4.85.83,9.69.54,14.52-.19,9.5-1.43,18.75-3.95,27.97-6.61,6.21-1.79,12.54-2.77,19-3.11,5.65-.29,11.2.06,16.69,1.42,2.21.54,4.23,1.57,6.4,2.21,1.24.37,2.22,1.24,2.36,2.59.15,1.42-.63,2.54-1.79,3.25-1.71,1.04-3.59,1.7-5.62,1.78-1.16.05-2.34.15-3.46-.29-.92-.36-1.75-.86-1.91-1.95-.12-.87.59-1.75,1.76-2.28.84-.38,1.01-.38,2.55.06Zm-9.86-5.27c-2.49-.32-4.86.17-7.25.23-4.87.11-9.67.86-14.48,1.56-5.32.77-10.35,2.56-15.44,4.2-8.83,2.85-17.81,4.93-27.2,4.19-.23-.02-.56-.1-.64.41.92.41,1.92.54,2.91.73,3.96.78,7.95.47,11.86-.11,9.27-1.37,18.56-2.65,27.46-5.86,5.73-2.06,11.64-3.61,17.68-4.54,1.67-.26,3.39-.13,5.09-.8Zm-60.01,13.2c.44.4,1.01.43,1.53.56,4.88,1.18,9.79,1.09,14.67.18,6.26-1.17,12.44-2.71,18.48-4.78,5.83-1.99,11.66-4,17.65-5.5.66-.17,1.31-.4,1.97-.6-.63-.25-1.18-.23-1.7-.1-7.72,1.87-15.46,3.65-23.14,5.66-9.66,2.53-19.27,5.28-29.45,4.59Z"/>
      <path class="cls-1" d="m348.37,951.8c-.84.19-1.53-.06-1.88-.83-.39-.85.2-1.43.75-1.95,1.89-1.79,5.03-1.42,6.22.71.73,1.31.55,2.45-.57,3.52-.83.8-1.87,1.12-2.95,1.34-2.7.54-5.31.29-7.83-.86-.57-.26-1.07-.61-1.51-1.05-1.16-1.17-1.24-2.34-.25-3.67.63-.84,1.52-1.38,2.4-1.91,1.41-.86,2.96-1.43,4.48-2.03,2.41-.96,4.85-1.81,7.06-3.27,1.54-1.02,3.41-1.41,5.22-1.81,6.53-1.42,13.02-.86,19.24,1.24,12.54,4.25,25.41,7.23,38.14,10.79,3.02.85,6.13,1.45,9.31,1.49,1.45.02,2.87-.2,4.28-.46,1.89-.34,2.82-1.2,2.79-2.48-.03-1.51-1.48-3.25-3-3.49-1.3-.21-2.6-.09-3.85.37-.45.17-.94.35-1.04.89-.12.65.31,1,.8,1.29.29.17.68.16.86.5-1.52.82-3.41.21-4-1.27-.25-.63-.15-1.21.23-1.75.37-.52.88-.87,1.49-1.03,3.56-.95,6.85-.2,9.62,2.1,2.19,1.81,1.58,4.2-1.06,5.27-7.15,2.91-14.6,4.2-22.29,3.76-7.75-.44-15.3-1.89-22.77-4.1-8.79-2.6-17.7-4.87-26.82-6.03-4.77-.61-9.55-.75-14.29.38-1.62.39-3.19.82-4.44,1.99-1.51,1.4-1.24,3.3.72,3.81,2.26.59,4.62.64,6.8-.53.35-.19.68-.47.92-.79.43-.55.38-1.15-.01-1.71-.44-.63-1.07-.83-1.8-.69-.63.12-1.15.43-1.43,1.05-.24.54.73.63.45,1.21Zm3.18-6.43c5.52-.42,10.95-.03,16.35.97,5.94,1.1,11.66,2.96,17.36,4.94,2.33.81,4.71,1.41,7.13,1.9,6.11,1.24,12.3,1.89,18.5,2.32,2.37.17,4.77.03,7.16.03-2.36-.33-4.71-.58-7.05-.99-6.63-1.15-13.05-3.08-19.39-5.26-3.38-1.16-6.82-2-10.33-2.62-2.09-.37-4.18-.7-6.26-1.1-5.93-1.14-11.9-1.76-17.95-1.45-1.91.1-3.78.39-5.51,1.27Zm6.3-2.98c.47,0,.95.02,1.42,0,5.16-.21,10.22.47,15.28,1.51,6.04,1.25,11.92,3.11,17.93,4.47,4.94,1.12,9.83,2.45,14.75,3.64,1.84.44,3.69.89,5.71,1.06-.37-.52-.82-.5-1.19-.59-6.24-1.6-12.36-3.57-18.47-5.61-8.25-2.76-16.56-5.28-25.33-5.81-3.45-.21-6.79.22-10.1,1.33Z"/>
      <path class="cls-1" d="m15,480.14c-1.22-1.12-1.32-2.6-2.35-3.42-1.77,2.07-1.84,2.74-.61,4.72,2.39,3.85,4.6,7.78,5.97,12.13,1.56,4.96.91,9.73-1.2,14.38-.55,1.21-1.41,2.19-2.4,3.04-1.71,1.48-3.67,1.48-5.4.04-1.35-1.13-2.22-2.61-2.9-4.18-.4-.92-.9-1.64-1.82-2.11-1.3-.65-1.96-1.9-2.54-3.14-1.5-3.16-2-6.49-1.65-9.99.41-4.04,1.16-7.99,2.61-11.79.26-.7-.04-1.36.03-1.99.06-.52.99-.53,1.31-1.24,1.41-3.11,1.5-3.1.07-6.26-1.91-4.19-2.87-8.56-2.54-13.17.28-3.98,1.74-7.46,4.82-10.1,2.86-2.44,5.99-2.6,8.61-.52,1.71,1.35,2.6,3.21,2.64,5.35.04,1.93.11,3.76,1.14,5.51.7,1.19.59,2.65.38,4.02-.42,2.67-1.27,5.17-2.67,7.5-.92,1.52-1.72,3.12-2.65,4.64-.75,1.24-.79,2.4-.07,3.67.45.79.98,1.59,1.21,2.89Zm-10.93-.15c-.48.51-.71,1.16-.93,1.81-1.37,3.91-2.04,7.96-2.16,12.07-.08,2.89.57,5.71,2.07,8.26.43.74.81,1.56,2.05,1.81-.63-4.44.05-8.63,1.27-12.68.84-2.79.41-5.23-.74-7.73-.54-1.18-1.31-2.25-1.56-3.56,1.76,1.61,2.15,4.01,3.55,6.31.63-2.11,1.17-3.9,1.68-5.69.07-.24.02-.56-.08-.8-.71-1.75-1.84-3.22-3.04-5.06-1.03,1.94-1.85,3.48-2.11,5.26Zm6.46,2.09c-.38.05-.55.27-.63.54-.4,1.38-.74,2.78-1.18,4.14-.43,1.33-.52,2.63-.25,4.03.43,2.28.72,4.6.54,6.93-.17,2.25-.34,4.53-1.73,6.44-.47.65-.46,1.27-.15,1.92.35.74.71,1.48,1.15,2.17,2.24,3.44,4.9,3.45,6.9-.09,2.03-3.61,2.89-7.53,2.15-11.67-.94-5.22-3.54-9.73-6.37-14.11-.1-.15-.32-.23-.43-.31Zm-4.23-10.37c1.85-2.76,3.54-4.98,3.1-8.07-.18-1.3.19-2.61.65-3.82.94-2.45,2.28-4.56,5.18-5,.85-.13,1.16-.66,1.16-1.43,0-.82.05-1.66-.12-2.45-.68-3.16-4.4-6.25-8.41-3.33-1.79,1.3-3.07,2.95-3.83,4.97-2.48,6.59-.92,12.73,2.27,19.13Zm12.09-11.42c.02-1.2-.08-1.94-.37-2.65-.13-.32-.27-.66-.67-.68-.43-.02-.54.37-.67.67-1.16,2.65-2.68,5.12-4.55,7.28-1.78,2.06-1.93,4.06-.89,6.37.14.31.21.65.35.96.19.42.25,1.01.8,1.1.61.09.74-.51.96-.9,1.03-1.77,2.07-3.54,3.04-5.34,1.23-2.26,1.8-4.7,1.99-6.81Zm-8.34,4.71c.42.17.6.03.71-.13,1.62-2.27,3.27-4.53,4.44-7.08.26-.57.91-1.29.19-1.83-.67-.51-1.43-.02-2.07.38-.17.11-.34.23-.48.38-2.25,2.36-2.78,5.25-2.8,8.28Zm-.44,3.71c-.87,1.45-1.53,2.55-2.18,3.65-.17.3-.25.62-.19.98.15.92,2.25,3.96,3.23,4.58.5-1.31,1.69-2.38,1.1-3.99-.59-1.59-1.19-3.18-1.95-5.22Zm-1.84,23.16c-1.73,4.15-2.1,9.74-.88,11.54,1.82-3.85,1.27-7.72.88-11.54Z"/>
      <path class="cls-1" d="m653.06,492.78c.13-3.47.95-7.81,2.33-12.08.61-1.9,1.39-3.71,2.31-5.45.67-1.27.69-2.38.02-3.68-2.33-4.46-3.35-9.22-3.08-14.27.22-4.03,1.63-7.46,4.7-10.12,2.03-1.75,4.35-2.71,7-1.6,2.7,1.13,4.02,3.39,4.41,6.22.09.67.07,1.37-.01,2.05-.11.92.03,1.72.57,2.52,1,1.48,1.18,3.16.93,4.92-.44,3.18-1.77,6.01-3.34,8.77-1.04,1.84-2.29,3.59-2.71,5.72-.07.36-.36.54-.58.8-1.65,1.96-1.68,3.1-.3,5.33,2.1,3.37,4.03,6.83,5.37,10.6,1.97,5.56,1.45,10.89-1.24,16.07-.51.99-1.21,1.83-2.06,2.53-1.65,1.37-3.58,1.38-5.24,0-1.34-1.12-2.29-2.55-2.98-4.13-.42-.97-.89-1.8-1.92-2.28-.96-.45-1.52-1.34-2.04-2.24-1.52-2.69-2.23-5.57-2.17-9.66Zm4.55-11.97c-1.23-.32-1.32.67-1.57,1.41-1.14,3.39-1.77,6.89-2.04,10.45-.24,3.13.35,6.14,1.81,8.94.47.91.92,1.93,2.33,2.35-.62-5.08.38-9.75,1.67-14.38.3-1.1.26-2.16-.14-3.22-.69-1.85-1.38-3.71-2.07-5.57,1.66,1.33,1.73,3.59,3.04,5.42.6-1.94,1.12-3.62,1.65-5.3.17-.55.14-1.09-.16-1.58-.7-1.17-1.41-2.34-2.15-3.48-.38-.59-.9-.69-1.27-.01-.86,1.54-1.89,3.07-1.1,4.98Zm5.58,1.23c-.79,2.7-2.15,5.31-1.79,8.35.18,1.49.49,2.97.58,4.47.2,3.3.13,6.57-1.76,9.48-.34.52-.38,1-.14,1.54.65,1.43,1.3,2.87,2.5,3.95,1.37,1.24,2.82,1.29,4.22.09.85-.72,1.48-1.63,1.91-2.64,1.97-4.55,2.49-9.19.85-13.97-1.3-3.78-3.23-7.23-5.31-10.61-.18-.29-.35-.59-1.08-.67Zm-3.98-10.54c2.54-2.77,3.28-4.45,3.26-7.54-.02-2.54.53-4.89,2.08-6.95.85-1.14,1.91-1.91,3.36-2.17,1.5-.27,1.56-.39,1.61-1.84.03-.75-.04-1.5-.22-2.24-.74-3.12-4.36-5.98-8.34-3.18-2.18,1.53-3.51,3.6-4.34,6.06-.83,2.46-.77,5.01-.59,7.53.25,3.59,1.52,6.9,3.2,10.32Zm6.3,2.26c1.63-2.39,2.75-4.65,3.97-6.85,1.11-2.01,1.63-4.2,1.92-6.46.13-1.05-.08-2.05-.49-3-.25-.59-.7-.69-1.05-.08-.44.77-.78,1.6-1.2,2.38-1.24,2.3-2.85,4.35-4.33,6.49-.42.62-.97,1.23-.83,2.04.32,1.81.77,3.58,2.02,5.49Zm-2.42,4.22c1.04-1.11,1.76-2.45,1.75-3.19,0-.53-1.86-5.07-2.39-5.76-.65,1.08-1.29,2.11-1.91,3.15-.29.49-.45,1.02-.15,1.55.82,1.46,1.56,2.98,2.7,4.25Zm.25-12.9c.87-.42,1.22-1.28,1.72-1.96,1.35-1.89,2.59-3.85,3.49-6,.15-.36.34-.8-.02-1.15-.34-.33-.77-.22-1.16-.1-.32.1-.63.26-.92.44-2.25,1.45-3.86,5.93-3.11,8.77Zm-3.9,38.51c1.92-2.45,2.41-8.69,1.13-12.2-1.2,3.94-1.64,7.81-1.13,12.2Z"/>
      <path class="cls-1" d="m454.16,947.76c1.11-.02,1.93.15,2.67.5,1.28.6,2.62.7,4,.7,21.91-.01,43.83,0,65.74,0,1.24,0,2.44-.04,3.62-.54.86-.37,1.76-.32,2.45.45.3.34.35.77.09,1.14-.62.89-1.56.85-2.42.61-1.42-.39-2.84-.36-4.28-.36-21.78,0-43.55,0-65.33,0-1.58,0-3.13.05-4.62.71-.87.39-1.83.56-2.81.23-1.07-.35-1.73-1.06-1.61-1.85.16-.97.91-1.31,1.74-1.49.33-.07.68-.07.75-.08Z"/>
      <path class="cls-1" d="m146.48,948.21c.14.01.29,0,.41.04,2.84,1.18,5.82.67,8.73.67,20.2.04,40.4.02,60.6.03,1.66,0,3.26-.06,4.81-.78,1.07-.5,2.25-.6,3.42-.27.77.22,1.38.68,1.45,1.54.07.9-.56,1.33-1.29,1.65-1.09.47-2.19.26-3.2-.17-1.37-.58-2.77-.68-4.22-.68-21.98.01-43.96,0-65.94,0-1.3,0-2.6-.05-3.87.36-.32.1-.68.11-1.02.1-.8-.03-1.53-.23-1.63-1.2-.08-.78.68-1.31,1.74-1.3Z"/>
      <path class="cls-1" d="m454.23,5.96c.86,0,1.5.06,2.03.36,1.51.84,3.13.86,4.79.86,21.71-.01,43.42,0,65.13,0,1.37,0,2.75.1,4.02-.58.06-.03.13-.05.19-.06.84-.19,1.65-.17,2.26.55.29.34.33.77.07,1.14-.55.81-1.43.85-2.22.63-1.96-.55-3.94-.39-5.92-.39-21.3-.01-42.6,0-63.9-.01-1.52,0-2.99.07-4.42.68-.94.4-1.96.62-3.01.26-.82-.28-1.52-.69-1.59-1.66-.06-.8.66-1.46,1.78-1.68.33-.07.68-.07.78-.08Z"/>
      <path class="cls-1" d="m223.22,9.59c-.55-.13-1.2-.17-1.74-.42-1.48-.69-3.04-.72-4.62-.72-21.85.01-43.7,0-65.54,0-1.3,0-2.6-.06-3.87.35-.32.1-.68.12-1.01.11-1.1-.03-1.77-.58-1.69-1.35.08-.75.87-1.35,1.9-1.11,6.5,1.51,13.08.61,19.62.67,16.92.15,33.83.05,50.75.06,1.46,0,2.86-.09,4.18-.79.87-.46,1.84-.53,2.81-.39,1.17.17,2,.93,1.93,1.78-.1,1.08-.94,1.43-1.83,1.66-.26.07-.54.08-.87.13Z"/>
      <path class="cls-1" d="m593.33,954.26c-5.09.95-8.95-.53-12.02-4.17-1.06-1.25-1.94-2.65-3.12-3.8-1.58-1.54-3.4-2.03-5.45-1.18-2.06.85-3.27,2.46-3.5,4.68-.26,2.51,1.22,4.06,3.74,4.02.76-.01,1.5-.18,2.18-.51,1.19-.57,1.44-1.28,1.09-2.84-.61-.12-.72.54-1.14.73-.55.25-1.07.25-1.53-.14-.48-.4-.57-.93-.31-1.48.25-.54.7-.89,1.31-.79,1.16.19,2.3.49,2.84,1.72.54,1.23.18,2.26-.69,3.19-1.7,1.82-5.41,2.05-7.38.46-1.8-1.46-2.14-4.6-.68-6.76,1.57-2.33,3.9-3.42,6.6-3.63,1.9-.14,3.39.92,4.62,2.29.78.86,1.54,1.74,2.23,2.68,2.49,3.37,5.88,5,10.01,5.21.2.01.41.03.61.05.06,0,.12.05.58.26Z"/>
      <path class="cls-1" d="m657.61,870.5c-.65-.7-1.27-1.43-1.94-2.11-1.02-1.04-1.45-2.27-1.43-3.72.03-3.76,2.43-6.92,5.74-7.53,2.76-.5,5.1,1.18,5.42,3.96.18,1.59.1,3.16-.9,4.52-.82,1.12-2.47,1.54-3.69,1-.94-.42-1.63-1.65-1.5-2.7.09-.74.43-1.32,1.23-1.44.71-.1,1.16.32,1.41.94.16.4.08.79-.14,1.17-.2.35-.71.44-.77,1.06,1.02.48,1.77.06,2.38-.77.99-1.35.93-3.9-.11-5.24-.48-.63-1.12-.96-1.91-1.07-2.46-.35-4.83.96-5.84,3.26-.95,2.15-.4,4.52,1.5,6.12,1.26,1.05,2.64,1.96,3.91,3,2.95,2.41,4.25,5.61,4.4,9.35.02.46.02.96-.62,1.55-.43-5.14-2.61-9.05-7.15-11.38,0,0,.02.02.02.02Z"/>
      <path class="cls-1" d="m660.83,91.53c.4.49.69.79.91,1.12.34.52.3,1.05-.1,1.51-.33.39-.78.59-1.29.42-.66-.21-1.07-.7-1.02-1.38.08-1.13.46-2.18,1.5-2.77,1.06-.6,2.12-.42,3.09.27,1.76,1.27,2.38,4.58,1.3,6.77-1.03,2.09-3.4,3-5.77,2.29-3.11-.93-4.37-3.38-5.01-6.22-.58-2.57.73-4.46,2.61-6.07,1.66-1.42,3.45-2.67,4.85-4.41,1.66-2.08,2.28-4.48,2.63-7.01.04-.32-.08-.7.37-.99.66,4.52-.6,8.25-4.08,11.2-1.36,1.15-2.85,2.13-4.08,3.44-1.7,1.81-2,4.03-.77,6.01,1.36,2.21,3.92,3.32,6.15,2.66.54-.16,1.01-.43,1.37-.86,1.02-1.2.98-4.44-.08-5.62-.66-.75-1.44-.95-2.58-.37Z"/>
      <path class="cls-1" d="m11.78,26.23c-.05-.64-.5-.81-.69-1.16-.3-.54-.24-1.06.16-1.52.34-.39.78-.56,1.29-.4.59.18.93.64.92,1.23-.02,1.05-.31,2.05-1.23,2.7-.92.64-1.92.65-2.92.15-.18-.09-.35-.21-.52-.33-1.54-1.2-2.09-4.85-1.03-6.87,1-1.92,3.44-2.81,5.66-2.09,5.23,1.71,6.68,8.38,2.6,12.04-.86.78-1.78,1.5-2.71,2.19-3.15,2.34-5,5.37-5.17,9.36-.01.26-.13.52-.22.77-.01.04-.11.05-.18.08-.53-.18-.38-.67-.4-1.03-.14-4.21,1.56-7.56,4.8-10.17,1.33-1.07,2.77-2,3.96-3.26,1.7-1.81,1.96-3.87.72-6-1.24-2.12-3.79-3.26-5.95-2.65-.93.26-1.56.87-1.91,1.72-.54,1.32-.54,2.69-.04,4.01.48,1.27,1.14,1.52,2.84,1.23Z"/>
      <path class="cls-1" d="m576.35,6.76c.37-1.39-.29-2.1-1.25-2.62-1.63-.9-4.02-.61-5.18.59-1.14,1.17-1.28,3-.35,4.78,2.11,4.01,7.02,3.97,9.15.95,1.57-2.22,3.11-4.5,5.45-6.07,2.43-1.63,5.59-2.27,8.71-1.46-1.32.23-2.34.38-3.35.59-2.94.61-5.28,2.16-7.13,4.51-1.06,1.34-2.05,2.74-3.29,3.93-1.69,1.63-3.63,2.03-5.87,1.35-2.73-.83-4.79-2.32-5.49-5.25-.67-2.78,1.01-5.32,3.85-5.69,1.89-.25,3.71-.06,5.11,1.48.76.84.92,1.83.6,2.87-.32,1.02-1.14,1.51-2.14,1.68-.33.06-.69.04-1.01-.05-.56-.15-.97-.51-1.07-1.12-.09-.53.13-.94.55-1.24.51-.36,1.02-.31,1.52.05.32.23.51.64,1.18.72Z"/>
      <path class="cls-1" d="m36.15,9.69c-.86.51-1.28,1.41-1.91,2.12-1.72,1.94-3.73,2.92-6.38,2.2-2.91-.78-5.11-2.28-5.83-5.39-.64-2.74,1.22-5.3,4.03-5.53,1.67-.14,3.3-.03,4.67,1.09.97.79,1.31,2,.94,3.14-.36,1.12-1.22,1.6-2.3,1.77-.81.13-1.53-.05-1.86-.89-.23-.57-.05-1.1.45-1.45.77-.54,1.41-.3,1.95.4.12.16.24.33.49.28.45-1.43.26-2-.87-2.61-1.49-.81-4.15-.51-5.21.58-1.05,1.09-1.22,3.19-.38,4.82,1.93,3.7,6.79,4.27,9.11.9,1.28-1.85,2.58-3.7,4.23-5.27,2.38-2.27,5.3-2.99,8.46-3.08.32,0,.7-.02.89.62-4.55.36-8.23,2.2-10.48,6.32,0,0,.02-.02.02-.02Z"/>
      <path class="cls-1" d="m641.67,949.4c-.38,1.86,0,2.71,1.36,3.11,1.2.36,2.45.36,3.65,0,1.59-.46,2.51-2.15,2.12-3.95-.53-2.41-2.02-4.05-4.42-4.63-2.15-.52-3.87.38-5.18,2.11-.95,1.25-1.85,2.55-2.83,3.78-2.78,3.48-6.41,4.9-10.94,4.48.41-.71,1.01-.67,1.51-.71,3.82-.36,6.61-2.38,8.83-5.36.9-1.2,1.78-2.42,2.84-3.5,1.92-1.96,4.12-2.16,6.6-1.28,2.48.89,4.34,2.38,4.91,5.04.71,3.31-1.85,6.05-5.34,5.78-1.31-.1-2.57-.46-3.54-1.43-.87-.86-1.14-2.21-.64-3.21.51-1.03,1.38-1.47,2.51-1.45.73,0,1.38.18,1.61.98.15.52-.02.97-.46,1.25-.66.43-1.29.34-1.85-.24-.19-.19-.37-.39-.73-.78Z"/>
      <path class="cls-1" d="m7.2,882.37c-.51-2.52-.15-4.7.71-6.8.82-2,2.12-3.66,3.84-5,1.19-.93,2.4-1.83,3.49-2.86,1.62-1.52,2.05-3.71,1.23-5.63-.87-2.06-3.03-3.52-5.14-3.48-1.95.04-3.08.98-3.42,2.87-.2,1.1-.09,2.19.38,3.22.33.73.86,1.23,1.65,1.42.35.08.7.06.96-.21.32-.33.09-.6-.12-.88-.16-.21-.34-.44-.42-.7-.22-.73.18-1.4.91-1.57.81-.19,1.51.31,1.6,1.15.11.99-.68,2.47-1.57,2.94-1.1.59-2.42.36-3.4-.58-1.56-1.5-1.92-4.89-.73-6.92,1.08-1.85,3.37-2.48,5.81-1.81,3.77,1.04,7,8.1,2.85,11.4-.96.76-1.8,1.69-2.76,2.45-3.22,2.56-5.21,5.76-5.31,9.98,0,.27,0,.55-.57,1.03Z"/>
      <path class="cls-1" d="m14.34,925.59c.54.92,1.47,1.41,2.23,2.09,2.21,1.98,2.62,4.43,1.31,7.67-1.1,2.74-3.28,4.3-5.92,4.26-2.27-.03-3.92-1.32-4.43-3.53-.42-1.82-.15-3.55.94-5.09.77-1.09,2.13-1.48,3.28-1.08,1.12.39,1.83,1.49,1.77,2.72-.03.66-.23,1.22-.92,1.45-.59.19-1.09,0-1.46-.47-.45-.58-.29-1.15.15-1.67.21-.25.57-.41.46-.96-1.02-.54-1.74,0-2.3.83-1.08,1.61-.93,4.05.3,5.36,1.18,1.26,3.06,1.44,4.92.47,3.48-1.81,3.99-6.46,1.35-8.61-.9-.74-1.83-1.43-2.75-2.13-1.86-1.41-3.6-2.93-4.72-5.05-1.17-2.2-1.46-4.51-.94-6.99.64,4.63,2.3,8.58,6.77,10.72,0,0-.02-.02-.02-.02Z"/>
      <path class="cls-1" d="m95.98,950.4c-.38.86-.2,1.55.34,2.16.87.99,3.33,1.32,4.85.67,1.31-.55,1.99-1.71,1.95-3.31-.04-2.08-1.83-4.49-3.82-5.17-2-.68-4.22-.02-5.69,1.84-1.4,1.77-2.74,3.59-4.38,5.16-2.45,2.34-5.41,3.08-8.68,2.99-.26,0-.56-.02-.62-.44.45-.52,1.11-.31,1.68-.39,3.12-.44,5.67-1.88,7.72-4.27,1.25-1.46,2.32-3.06,3.75-4.36,2.19-1.99,4.66-2.16,7.82-.58,2.45,1.23,3.74,3.51,3.52,6.2-.18,2.21-1.58,3.7-3.78,3.89-.95.08-1.92.06-2.87-.07-1.29-.18-2.28-.92-2.86-2.11-.88-1.8.54-3.95,2.53-3.88.75.03,1.35.31,1.53,1.11.13.59-.06,1.1-.6,1.4-.64.36-1.18.14-1.64-.37-.17-.19-.27-.48-.75-.48Z"/>
      <path class="cls-1" d="m657.2,31.09c-.66-.69-1.29-1.41-1.98-2.08-1.7-1.66-2.07-3.57-1.4-5.83.79-2.67,2.17-4.71,5-5.46,3.08-.81,5.66,1.09,5.82,4.28.07,1.45,0,2.88-.9,4.12-.73.99-1.96,1.47-3.07,1.17-1.1-.3-1.72-1.07-1.95-2.16-.19-.88-.05-1.66.86-2.07.57-.25,1.11-.09,1.44.43.47.74.32,1.43-.33,2.01-.15.13-.28.29-.42.44,1.3.56,2.01.35,2.64-.75.74-1.3.57-3.94-.39-5.09-.92-1.1-2.13-1.49-3.51-1.15-2.31.58-3.85,2.05-4.47,4.36-.58,2.19.33,3.88,2.02,5.21,1.35,1.05,2.78,2,4.09,3.09,3.36,2.8,4.53,6.46,4.06,10.72-.82-1.32-.59-2.93-1.22-4.32-.68-1.5-1.34-3-2.56-4.17-1.14-1.09-2.28-2.17-3.76-2.79,0,0,.02.02.02.02Z"/>
      <path class="cls-1" d="m47.17,953.72c-.92.58-1.9.63-2.93.51-3.76-.42-6.72-2.15-8.95-5.19-.93-1.27-1.81-2.58-2.99-3.65-1.5-1.36-3.8-1.73-5.53-.87-2.07,1.02-3.5,3.29-3.29,5.28.15,1.49.9,2.55,2.36,3.05,1.57.53,3.75.11,4.6-.92.36-.43.64-.92.49-1.5-.11-.44-.35-.77-.88-.45-.23.14-.42.36-.66.48-.54.27-1.06.23-1.5-.23-.37-.39-.42-.85-.23-1.33.23-.57.67-.91,1.27-.84,1.12.13,2.15.49,2.72,1.57.57,1.09.38,2.13-.33,3.08-1.19,1.59-4.35,2.24-6.44,1.35-1.95-.83-3.03-2.79-2.7-5.03.39-2.72,2.03-4.39,4.56-5.3,3.27-1.18,5.69-.54,7.86,2.13.73.9,1.45,1.82,2.18,2.73,2.66,3.28,6.05,5.06,10.39,5.13Z"/>
      <path class="cls-1" d="m660.29,931.06c-.06.5.43.64.64.97.36.58.44,1.15-.04,1.7-.35.4-.82.51-1.31.33-.64-.23-1.05-.7-.99-1.4.11-1.14.53-2.16,1.62-2.69,1.07-.52,2.14-.42,3.09.33,1.79,1.41,2.27,4.79,1,6.99-1.19,2.06-3.7,2.8-6.1,1.78-2.73-1.16-4.89-4.72-4.58-7.63.13-1.26.7-2.34,1.56-3.28,1.07-1.17,2.33-2.13,3.59-3.05,3.39-2.48,5.08-5.82,5.38-9.94.01-.19.08-.38.13-.64,1.26,4.46-.93,8.73-3.64,10.93-1.28,1.03-2.59,2.02-3.89,3.03-2.18,1.68-2.51,3.57-1.82,5.84.66,2.17,2.41,3.45,4.68,3.82,1.74.28,3.25-.73,3.8-2.43.45-1.38.31-2.72-.43-3.95-.68-1.13-1.28-1.26-2.7-.71Z"/>
      <path class="cls-1" d="m641.58,7.47c.59.09.74-.52,1.14-.73.56-.29,1.06-.26,1.52.15.45.41.6.92.32,1.48-.27.54-.73.79-1.33.78-1.09-.02-2.41-.86-2.75-1.85-.38-1.11-.23-2.16.59-3.05,1.52-1.65,4.97-1.98,7.06-.68,1.77,1.1,2.42,3.54,1.56,5.85-1.78,4.77-7.98,6.13-11.53,2.49-1.19-1.22-2.28-2.55-3.37-3.86-2.22-2.69-5.15-3.97-8.52-4.44-.38-.05-.83.11-1.15-.36,5.43-.96,9.25,1.49,12.31,5.61.69.93,1.3,1.93,2.15,2.74,1.57,1.5,3.36,2.15,5.43,1.23,2.16-.95,3.52-2.59,3.7-5.01.12-1.61-.84-2.88-2.37-3.44-1.31-.48-2.58-.31-3.78.26-1.19.56-1.42,1.34-.98,2.83Z"/>
      <path class="cls-1" d="m14.34,86.58c.56.6,1.09,1.23,1.68,1.8,2.01,1.92,2.5,4.12,1.49,6.74-.89,2.29-2.19,4.1-4.67,4.8-3.09.87-5.71-.78-6.16-3.95-.22-1.54.11-3.02.96-4.32.75-1.15,2.27-1.63,3.44-1.22,1.11.39,1.78,1.51,1.68,2.77-.05.65-.24,1.22-.94,1.44-.52.16-.97,0-1.27-.42-.41-.55-.36-1.14-.02-1.73.2-.34.77-.39.7-.92-1.53-.36-2.39.03-2.8,1.39-.36,1.2-.37,2.45-.02,3.65.46,1.58,2.16,2.51,3.95,2.13,2.33-.5,3.91-1.94,4.6-4.23.66-2.19-.27-3.89-1.88-5.28-1.45-1.25-3.06-2.3-4.46-3.62-2.93-2.75-4.01-6.09-3.35-10.08.37,1.44.7,2.89,1.11,4.32.42,1.49,1.35,2.68,2.36,3.81,1.05,1.18,2.15,2.3,3.64,2.93,0,0-.02-.02-.02-.02Z"/>
      <path class="cls-1" d="m79.67,2.81c4.66-.64,8.36.88,11.27,4.43.87,1.06,1.66,2.18,2.55,3.21,1.39,1.6,3.08,2.49,5.28,1.87,2.34-.66,3.73-2.23,4.2-4.57.47-2.34-.89-4.05-3.28-4.18-.74-.04-1.51.01-2.24.14-.77.13-1.39.58-1.74,1.3-.25.51-.41,1.1.03,1.54.55.55.8-.19,1.14-.41.59-.38,1.15-.44,1.67.08.43.43.55.96.29,1.51-.32.64-.9.78-1.57.71-1.25-.14-2.43-1.11-2.69-2.22-.28-1.19.24-2.47,1.38-3.17,1.26-.77,2.65-1.15,4.12-1.01,3.05.29,4.93,3.06,4.17,6.06-.86,3.42-5.31,6.06-8.72,5.19-.88-.22-1.67-.63-2.3-1.29-.9-.94-1.87-1.82-2.65-2.85-2.43-3.19-5.41-5.38-9.53-5.77-.44-.04-.97.02-1.39-.53Z"/>
      <path class="cls-1" d="m62.69,9.86c.54-.59.57-1.39.91-2.05,1.59-3.08,4.01-4.95,7.51-5.31.41-.04.83-.09,1.21.1.45.22.61.56.2.96-.46.44-1.06.63-1.65.8-3.23.95-5.79,2.67-7.27,5.84-.59,1.26-1.22,1.27-1.85.08-1.55-2.9-3.91-4.68-7.08-5.44-.27-.06-.53-.14-.78-.26-.57-.27-1.61-.26-1.33-1.19.22-.71,1.13-.68,1.81-.58,3.44.47,5.93,2.28,7.48,5.39.27.54.26,1.21.83,1.66Z"/>
      <path class="cls-1" d="m657.88,58.36c.49.43,1.12.46,1.67.69,3.25,1.35,5.07,3.82,5.7,7.23.04.2.08.41.07.61-.02.54.02,1.19-.68,1.31-.6.1-.76-.48-.94-.92-.28-.7-.55-1.4-.79-2.11-.86-2.61-2.57-4.47-4.97-5.74-.24-.13-.49-.25-.72-.4-.68-.46-.74-.95-.04-1.44.22-.16.46-.3.7-.43,2.51-1.43,4.1-3.55,4.86-6.33.23-.85.54-1.7.95-2.48.29-.55.78-.52,1.06.1.29.65.22,1.34.11,2.02-.58,3.39-2.59,5.64-5.6,7.11-.47.23-1.1.19-1.39.79Z"/>
      <path class="cls-1" d="m608.34,10.02c.87-2.3,1.86-4,3.42-5.29,1.7-1.4,3.62-2.18,5.86-2.01.34.03.73.09.84.48.15.52-.28.73-.65.88-.83.32-1.67.62-2.51.89-2.45.79-4.35,2.25-5.62,4.51-.13.24-.26.48-.41.71-.8,1.2-1.23,1.18-2.02-.11-.36-.58-.65-1.21-1.06-1.75-1.19-1.56-2.73-2.66-4.62-3.26-.97-.31-1.93-.69-2.88-1.07-.24-.1-.47-.32-.44-.63.03-.42.36-.55.7-.61.75-.13,1.5-.06,2.24.13,2.83.72,4.8,2.51,6.18,5.01.29.53.51,1.1.98,2.13Z"/>
      <path class="cls-1" d="m657.49,897.81c2.37.77,4.17,1.71,5.52,3.36,1.4,1.71,2.15,3.64,2,5.87-.02.33-.04.73-.44.85-.52.16-.73-.27-.89-.63-.25-.56-.48-1.14-.64-1.73-.83-2.98-2.49-5.27-5.27-6.75-1.5-.8-1.48-1.23-.04-2.04,2.65-1.48,4.35-3.68,5.27-6.54.25-.78.4-1.62.96-2.25.34-.39.77-.34.94.18.26.8.19,1.64,0,2.44-.61,2.51-1.93,4.52-4.24,5.77-.89.48-1.84.86-3.17,1.48Z"/>
      <path class="cls-1" d="m14.29,59.44c-1.03-.51-1.64-.8-2.25-1.1-2.94-1.47-4.43-3.96-4.97-7.11-.03-.2-.07-.41-.05-.61.05-.53-.03-1.21.66-1.34.59-.1.74.51.91.94.21.51.38,1.03.54,1.55.87,2.86,2.41,5.17,5.15,6.61,1.44.76,1.46,1.38.06,2.11-2.81,1.47-4.38,3.84-5.25,6.78-.12.39-.23.79-.4,1.17-.24.52-.33,1.41-1.13,1.15-.66-.21-.6-1.02-.52-1.63.44-3.16,1.85-5.7,4.75-7.25.71-.38,1.43-.72,2.49-1.26Z"/>
      <path class="cls-1" d="m609.51,947.15c-.55,1.21-.9,2.1-1.35,2.93-1.45,2.64-3.76,4.07-6.68,4.61-.27.05-.55.06-.82.04-.47-.04-1.03-.06-1.11-.66-.07-.5.41-.67.78-.83.69-.3,1.39-.59,2.1-.82,2.58-.86,4.57-2.42,5.82-4.87.19-.36.38-.74.63-1.05.38-.46.82-.46,1.2.03.17.21.31.45.44.69,1.5,2.63,3.69,4.34,6.64,5.1.66.17,1.3.43,1.93.68.31.12.68.3.64.71-.05.52-.51.59-.91.63-.75.09-1.5.03-2.24-.16-2.83-.73-4.81-2.51-6.18-5.02-.29-.53-.5-1.11-.89-2.01Z"/>
      <path class="cls-1" d="m14.32,898.71c-2.01-.46-3.59-1.38-4.89-2.75-1.62-1.7-2.55-3.71-2.49-6.1,0-.34.04-.73.43-.86.53-.18.74.25.9.61.41.94.79,1.89,1.14,2.86.83,2.3,2.34,3.99,4.49,5.13.3.16.61.31.89.5.66.45.72.97.1,1.5-.31.26-.67.47-1.02.69-2.29,1.47-3.8,3.5-4.5,6.14-.17.66-.41,1.31-.65,1.95-.14.39-.36.83-.83.78-.5-.06-.53-.55-.57-.96-.21-2.18.54-4.05,1.9-5.69,1.1-1.32,2.35-2.49,4.07-3,.32-.09.66-.19,1.02-.8Z"/>
      <path class="cls-1" d="m63.79,946.95c-.51,1.63-1.03,2.89-1.89,3.97-1.8,2.27-4.04,3.65-7.03,3.51-.4-.02-.91.02-1.04-.46-.18-.63.4-.8.82-.97.95-.37,1.93-.68,2.89-1.03,2.07-.75,3.68-2.05,4.77-3.97.23-.42.46-.84.75-1.22.49-.62,1.03-.59,1.53.01.09.1.17.22.23.34,1.55,3.11,4.22,4.71,7.43,5.64.64.19,1.83.21,1.63,1.15-.18.87-1.29.55-1.98.48-3.2-.29-5.39-2.1-6.93-4.8-.4-.71-.68-1.48-1.2-2.65Z"/>
      <path class="cls-1" d="m611.47,46.54c-.1.3-.15.58-.29.81-.75,1.29-1.52,2.58-2.3,3.85-.34.55-.81.54-1.13.03-.82-1.33-1.58-2.7-2.35-4.06-.25-.45-.2-.91.05-1.36.73-1.31,1.42-2.63,2.18-3.92.47-.8.82-.78,1.31.03.74,1.22,1.44,2.47,2.14,3.71.16.29.26.61.39.91Z"/>
      <path class="cls-1" d="m45.42,898.29c1.76-1.09,3.35-2.08,4.95-3.06.47-.29.93-.11,1.36.12,1.25.69,2.51,1.38,3.74,2.11.77.46.6.97-.06,1.4-.46.3-.96.53-1.39.86-1.9,1.5-3.77,2-5.79.17-.73-.66-1.89-.7-2.81-1.6Z"/>
      <path class="cls-1" d="m608.79,916.13c-1.04-1.67-2-3.22-2.97-4.77-.28-.46-.24-.91,0-1.36.69-1.25,1.37-2.51,2.09-3.74.39-.67.91-.79,1.45-.11.12.16.21.35.34.51,1.95,2.36,2.72,4.77.44,7.4-.48.55-.54,1.39-1.35,2.06Z"/>
      <path class="cls-1" d="m615.92,897.71c1.51-1.3,3.13-1.92,4.55-2.84.35-.23.79-.35,1.17-.13,1.63.95,3.24,1.93,5.21,3.11-2,1.1-3.65,2.02-5.31,2.9-.31.17-.69.09-.99-.09-1.49-.93-3.2-1.52-4.63-2.95Z"/>
      <path class="cls-1" d="m621.24,62.13c-.19-.06-.47-.11-.7-.24-1.31-.71-2.62-1.43-3.92-2.18-.65-.37-.67-.85-.04-1.25,1.32-.83,2.67-1.62,4.02-2.41.45-.27.92-.2,1.35.07,1.26.8,2.55,1.56,3.92,2.16.51.23.78.69.18,1.08-1.42.92-2.89,1.78-4.34,2.65-.11.07-.26.06-.47.11Z"/>
      <path class="cls-1" d="m66.48,46.67c-.09.25-.15.52-.28.75-.69,1.25-1.37,2.51-2.09,3.74-.38.65-.86.63-1.25,0-.79-1.27-1.56-2.56-2.33-3.84-.31-.52-.25-1.02.05-1.54.75-1.29,1.54-2.56,2.12-3.95.23-.54.7-.76,1.07-.18.9,1.44,1.73,2.92,2.57,4.4.09.17.08.39.13.61Z"/>
      <path class="cls-1" d="m45.31,59.43c1.88-1.07,3.51-2.01,5.15-2.93.39-.22.81-.17,1.17.04,1.24.7,2.5,1.38,3.7,2.16.86.56.86.95-.01,1.52-1.2.78-2.46,1.46-3.7,2.15-.37.21-.78.25-1.17.03-1.63-.93-3.25-1.88-5.14-2.97Z"/>
      <path class="cls-1" d="m63.87,905.71c.35.08.61.32.78.61.69,1.18,1.37,2.36,2.04,3.54.29.51.26,1.05-.03,1.56-.7,1.25-1.37,2.51-2.1,3.74-.47.79-.86.8-1.33.05-.76-1.21-1.46-2.46-2.19-3.69-.26-.43-.45-.88-.18-1.35.77-1.37,1.56-2.72,2.35-4.07.14-.24.38-.38.67-.41Z"/>
      <path class="cls-1" d="m543.99,7.78c-.22.64-.83.6-1.34.67-2.17.29-4.28.79-6.31,1.63-.41.17-.9.51-1.31.03-.3-.35-.11-.8.05-1.16.45-1.02.16-2-.1-2.99-.16-.6.18-1.06.75-.81,2.63,1.14,5.52,1.42,8.18,2.43.04.02.05.12.08.21Z"/>
      <path class="cls-1" d="m133.53,7.76c.35-.55.78-.54,1.17-.62,2.2-.46,4.39-.93,6.48-1.79,1.36-.56,1.71-.25,1.33,1.08-.3,1.04-.24,1.99.1,2.99.19.57-.12,1.08-.71.83-2.6-1.08-5.37-1.46-8.06-2.15-.11-.03-.17-.19-.3-.35Z"/>
      <path class="cls-1" d="m133.62,949.43c.18-.59.75-.53,1.17-.6,2.23-.37,4.41-.86,6.52-1.73,1.23-.51,1.57-.2,1.21,1.06-.27.96-.28,1.86-.04,2.82.2.8-.2,1.31-.98.98-2.47-1.04-5.14-1.38-7.67-2.2-.09-.03-.14-.21-.21-.33Z"/>
      <path class="cls-1" d="m544.13,949.33c-.47.72-1.07.71-1.57.8-2.15.41-4.25,1-6.31,1.78-1.1.42-1.49.09-1.19-.99.29-1.04.27-1.98-.03-3.01-.26-.89.06-1.18.94-.88,1.36.45,2.7.95,4.1,1.3,1.31.33,2.73.2,4.06,1Z"/>
      <path class="cls-1" d="m10.66,59.51c-.53.82-1.33,1.54-2.28,2.08-.67.38-1.15-.06-1.63-.45-2.7-2.2-2.31-1.55-.07-3.67.83-.78,1.49-.77,2.26,0,.38.38.85.68,1.26,1.03.27.22.49.47.46,1Z"/>
      <path class="cls-1" d="m609.57,950.96c.53.06.77.6,1.12.99q1.57,1.76.1,3.6c-1.14,1.42-1.26,1.43-2.4.13-1.67-1.91-1.6-2.73.38-4.38.21-.18.41-.35.8-.33Z"/>
      <path class="cls-1" d="m10.67,898.81c.03.33-.18.51-.35.72-1.82,2.18-3.12,2.19-5.11.07-.44-.46-.4-.83.01-1.22.24-.24.52-.44.79-.66,1.76-1.42,3.38-1.15,4.52.74.07.11.11.24.15.35Z"/>
      <path class="cls-1" d="m664.2,895.48c.59-.04,2.91,1.74,2.97,2.31.02.18-.04.42-.16.56-.22.26-.49.47-.75.69-1.95,1.66-3.04,1.51-4.47-.61-.16-.23-.28-.46-.19-.75.16-.56,2.05-2.17,2.6-2.21Z"/>
      <path class="cls-1" d="m66.19,953.71c.03.51-1.9,2.87-2.39,2.89-.19,0-.41-.07-.56-.18-.21-.16-.37-.39-.55-.6-1.71-1.94-1.59-3.11.44-4.63.23-.17.46-.28.74-.23.44.08,2.28,2.28,2.31,2.75Z"/>
      <path class="cls-1" d="m664.51,55.85c.96.51,1.83,1.25,2.62,2.08.04.04.08.13.06.19-.21,1.14-1.39,1.39-2.01,2.17-.37.46-.88.63-1.43.21-.16-.12-.34-.23-.49-.36-.65-.56-1.57-.89-1.7-1.89-.05-.39,1.87-2.14,2.45-2.31.13-.04.26-.04.49-.08Z"/>
      <path class="cls-1" d="m62.83,6.19c-.71-.06-1.06-.6-1.46-1.04-.48-.53-1.39-1.01-1.09-1.8.4-1.06,1.15-1.97,2.07-2.69.09-.07.28-.1.38-.06,1.1.53,1.64,1.59,2.25,2.53.41.62-.2,1.14-.6,1.57-.49.53-.76,1.31-1.56,1.49Z"/>
      <path class="cls-1" d="m608.23,6.21c-.92-.48-1.4-1.42-2.03-2.2-.43-.54-.03-1,.29-1.47,1.74-2.52,1.9-2.5,3.84-.11.76.93.61,1.57-.16,2.27-.59.54-.96,1.35-1.95,1.51Z"/>
      <path class="cls-1" d="m97.31,19.75c-.04,1.73-.58,3.36-.97,5.02-.19.79-.99,1.09-1.6.72-.62-.38-.9-1.12-.42-1.55,1.28-1.17,1.23-2.73,1.52-4.2.1-.52.39-.89.99-.76.39.08.5.42.48.77Z"/>
      <path class="cls-1" d="m32.45,930.95c-.33-.86-.69-1.71-1.66-2.07h.01c-.19-1.67,1.58-1.98,2.21-3.09.12-.2.51-.08.73.12.22.2.35.56.17.72-1.21,1.09-.78,1.93.15,2.98.51.56-.14,1.11-1.63,1.33h.01Z"/>
      <path class="cls-1" d="m32.45,26.55c-1.08-.03-1.9-.38-1.84-1.64.03-.7-.46-1.09-.71-1.63-.28-.59-.08-1.1.51-1.33.64-.25,1.11.11,1.16.73.06.72.22,1.19.9,1.62,1.03.66.5,1.51-.04,2.26,0,0,.02-.02.02-.02Z"/>
      <path class="cls-1" d="m32.43,930.94c.44.85.65,1.7-.32,2.32-.55.36-.49.91-.65,1.41-.2.61-.67.88-1.27.65-.65-.25-.68-.8-.39-1.35.25-.47.57-.85.65-1.44.2-1.43.26-1.42,1.99-1.58,0,0-.01-.01-.01-.01Z"/>
      <path class="cls-1" d="m30.79,928.88c-.16,1.66-.15,1.71-1.78,2.01-.59.11-.9.58-1.41.75-.51.16-.96.09-1.18-.46-.18-.42-.07-.96.31-1.05.96-.23,1.63-.79,2.34-1.41.51-.45,1.16-.06,1.73.17,0,0-.01-.01-.01-.01Z"/>
      <path class="cls-1" d="m641.58,928.87c-.74.56-1.67.82-2.28,1.61-.37.47-1,.45-1.39-.09-.43-.6-.34-1.16.38-1.48.43-.19.8-.39,1.15-.76,1.12-1.23,1.56-1.05,2.11.74l.02-.02Z"/>
      <path class="cls-1" d="m639.48,29.83c-.08-.59-.19-1.11-.69-1.58-1.23-1.17-1.08-1.53.72-2.09.13.13.27.26.4.4.06.81.48,1.35,1.23,1.64.12.13.25.26.37.39-.1.99-.64,1.54-1.63,1.62-.13-.12-.27-.25-.4-.37Z"/>
      <path class="cls-1" d="m30.79,27.8c.85-.02,1.58-.21,1.66-1.25,0,0-.02.02-.02.02.47-.09.94-.26,1.4-.04.64.3.84,1.11.28,1.49-.68.46-1.25,1.01-1.85,1.54-.47.41-1.04.24-1.35-.37-.23-.45-.13-.94-.11-1.41l-.02.02Z"/>
      <path class="cls-1" d="m28.34,26.55c-.69.52-1.39.89-2.18.17-.4-.36-.91-.17-1.37-.25-.44-.07-.78-.33-.72-.82.06-.47.43-.78.86-.64.72.23,1.4.25,2.16.18.83-.08,1.05.7,1.23,1.37,0,0,.01-.01.01-.01Z"/>
      <path class="cls-1" d="m648.81,92.2c0,.44-.27.85-.71.78-.86-.14-1.7-.3-2.58-.33-.43-.01-.66-.46-.6-.92.08-.54.45-.97.96-.83.82.24,1.58.65,2.48.64.25,0,.42.32.45.66Z"/>
      <path class="cls-1" d="m24.56,92.93c-.64-.03-.98-.21-1.03-.69-.05-.46.19-.9.63-.86.77.08,1.4-.04,2.05-.5.41-.29.95-.1,1.15.44.24.61-.03,1.11-.63,1.26-.76.19-1.63-.24-2.17.36Z"/>
      <path class="cls-1" d="m95.74,933.83c.72.18,1.29.54,1.22,1.38-.05.63.04,1.19.27,1.78.19.5.02.98-.57,1.09-.57.11-1.02-.24-.95-.77.1-.74-.14-1.27-.48-1.88-.38-.65.2-1.13.53-1.63l-.02.02Z"/>
      <path class="cls-1" d="m639.48,29.83c.13.12.27.25.4.37-.25,1.62-1.54,2.72-1.97,4.69-.76-1.83-.09-3.09.22-4.34.14-.6.81-.65,1.36-.72Z"/>
      <path class="cls-1" d="m576.43,16.08c.21.08.33.26.28.46-.27,1.11-.61,2.18-.27,3.37.11.39-.33.74-.79.76-.46.02-.91-.27-.79-.71.32-1.22.23-2.57,1.05-3.64.13-.17.3-.27.52-.24Z"/>
      <path class="cls-1" d="m23.02,865.59c-.4.09-1.25.29-2.09.49-.21.05-.42.05-.54-.14-.18-.28-.02-.51.21-.68,1.08-.82,2.42-.74,3.65-1.05.33-.08.62.25.66.64.05.47-.17.81-.63.89-.25.04-.53-.05-1.26-.14Z"/>
      <path class="cls-1" d="m672.04,477.59c1.1-.15,2.16-.12,3.22-.29.42-.07.87.08.95.55.08.48-.3.74-.71.83-1.31.28-2.51.12-3.45-1.09Z"/>
      <path class="cls-1" d="m633.08,30.04c1.54-.7,2.8-1.1,3.82-1.94.25-.21.66,0,.88.29.23.3.25.76-.04.91-1.32.65-2.66,1.39-4.66.75Z"/>
      <path class="cls-1" d="m30.93,940.8c-1.5-1.17-1.13-2.68-1.6-3.89-.15-.4.19-.78.65-.86.48-.09.97.27.85.61-.45,1.31.34,2.59.11,4.14Z"/>
      <path class="cls-1" d="m644.31,866.5c-.02.7-.34,1.2-1.06,1.27-.72.06-1.17-.34-1.23-1.06-.06-.71.32-1.2,1.03-1.27.72-.07,1.11.38,1.26,1.06Z"/>
      <path class="cls-1" d="m95.76,933.81c-.48.02-.96.04-1.39-.23-.52-.34-.71-.83-.49-1.41.19-.49.58-.76,1.12-.72.62.05.99.41,1.09,1.02.09.5-.16.93-.36,1.36,0,0,.02-.02.02-.02Z"/>
      <path class="cls-1" d="m641.55,928.9c.47.02.96-.03,1.41.07.6.15.89.63.8,1.24-.09.61-.52.96-1.13.98-.6.01-1.03-.32-1.2-.91-.13-.48.04-.94.14-1.4,0,0-.02.02-.02.02Z"/>
      <path class="cls-1" d="m30.4,89.91c-.05.47-.1.94-.41,1.32-.37.45-.83.69-1.41.44-.4-.18-.6-.53-.62-.96-.03-.61.23-1.06.84-1.18.39-.08.8-.03,1.2-.04.13.14.27.28.4.42Z"/>
      <path class="cls-1" d="m639.91,26.55c-.13-.13-.27-.26-.4-.4-.41-1.23.03-2.04,1.24-2.46l-.02-.02c1.56,1.58,1.37,2.25-.82,2.88Z"/>
      <path class="cls-1" d="m18.85,477.57c1.39-.09,2.38-.17,3.38-.21.42-.02.87.06.89.58.03.48-.38.7-.79.77-1.17.22-2.25.07-3.49-1.14Z"/>
      <path class="cls-1" d="m641.51,28.58c-.12-.13-.25-.26-.37-.39.05-.54.1-1.08.52-1.48.49-.48,1.04-.62,1.59-.1.51.48.41,1.34-.18,1.75-.47.33-1.02.25-1.56.22Z"/>
      <path class="cls-1" d="m641.46,932.04c-.13.66-.48,1.13-1.2,1.08-.7-.05-1.09-.53-1.04-1.22.05-.68.45-1.14,1.17-1.09.7.05,1.02.54,1.07,1.23Z"/>
      <path class="cls-1" d="m28.83,867.55c-.81-.15-1.15-.61-1.08-1.3.06-.6.45-1,1.08-.98.72.02,1.12.46,1.1,1.17-.02.73-.51,1.04-1.1,1.11Z"/>
      <path class="cls-1" d="m641.97,90.3c.28-.19.55-.41.86-.55.57-.27,1.08-.15,1.4.42.31.54.22,1.08-.27,1.46-.57.43-1.16.34-1.63-.19-.29-.32-.32-.74-.33-1.15,0,0-.02.02-.02.02Z"/>
      <path class="cls-1" d="m640.25,869.95c-.38.67-.82,1.48-1.31,2.26-.05.09-.4.07-.55-.01-.15-.08-.33-.36-.29-.47.3-.81.4-1.71.97-2.41.17-.21.46-.28.74-.17.28.11.4.34.44.8Z"/>
      <path class="cls-1" d="m577.25,25.71c-.7-.02-1.17-.36-1.21-1.07-.04-.71.4-1.14,1.1-1.18.64-.04,1.01.36,1.08.96.09.7-.24,1.16-.97,1.28Z"/>
      <path class="cls-1" d="m577.42,931.34c.21.34.48.67.62,1.04.23.6-.03,1.08-.61,1.31-.56.22-1.09.08-1.41-.46-.33-.55-.2-1.08.3-1.43.32-.22.74-.3,1.12-.44l-.02-.02Z"/>
      <path class="cls-1" d="m649.05,865.76c-.64.06-.91.12-1.17.09-.44-.05-.77-.3-.77-.77,0-.5.37-.71.8-.7.53.01,1.06.12,1.59.17.42.04.86.1.84.63-.02.52-.43.62-.87.6-.27-.01-.53-.03-.43-.02Z"/>
      <path class="cls-1" d="m30.8,27.78c-1.82,1.01-2.18.83-2.47-1.23,0,0-.01.01-.01.01,1.84-.64,1.99-.57,2.46,1.23,0,0,.02-.02.02-.02Z"/>
      <path class="cls-1" d="m577.44,931.36c.05-.39.03-.82.18-1.17.23-.54.7-.81,1.3-.61.45.15.56.55.52.97-.06.62-.4.98-1.04.96-.33-.01-.65-.11-.98-.17,0,0,.02.02.02.02Z"/>
      <path class="cls-1" d="m640.75,23.69c-.03-.4-.13-.81-.07-1.2.08-.54.48-.8,1.02-.77.44.03.77.28.87.72.13.55-.15.95-.64,1.11-.37.12-.8.08-1.2.12,0,0,.02.02.02.02Z"/>
      <path class="cls-1" d="m641.99,90.28c-.54,0-1.09.06-1.54-.33-.33-.29-.46-.65-.32-1.09.09-.28.31-.45.58-.51.43-.11.82,0,1.07.38.32.48.22,1.04.19,1.57,0,0,.02-.02.02-.02Z"/>
      <path class="cls-1" d="m17.8,475.94c.07-1.27.73-1.74,1.57-2.05.39-.14.85-.12,1.06.29.24.45-.09.76-.48.93-.65.28-1.32.51-2.15.83Z"/>
      <path class="cls-1" d="m670.95,475.73c-.14-.65.17-1.02.53-1.34.48-.42,1.02-.71,1.67-.41.14.07.29.34.27.49-.09.66-.69.78-1.18.97-.37.14-.71.42-1.28.28Z"/>
      <path class="cls-1" d="m30.4,89.91c-.13-.14-.27-.28-.4-.42.06-.2.09-.4.17-.59.27-.64.71-1.03,1.44-.73.42.17.65.55.56.99-.14.73-.65.99-1.37.86-.13-.02-.26-.07-.4-.11Z"/>
    </g>
  </g>
</svg>