<?xml version="1.0" encoding="UTF-8"?>
<svg id="_레이어_2" data-name="레이어 2" xmlns="http://www.w3.org/2000/svg" viewBox="0 0 275.3 11.7">
  <defs>
    <style>
      .cls-1 {
        fill: #fff;
      }
    </style>
  </defs>
  <g id="_레이어_1-2" data-name="레이어 1">
    <g>
      <path class="cls-1" d="m1.21,11.36H0V.41h1.21v5.68L5.62.41h1.44l-3.69,4.85,4.01,6.1h-1.46l-3.3-5.03-1.41,1.82v3.21Z"/>
      <path class="cls-1" d="m9.15,11.34h-1.25L11.08.42h2.09l3.18,10.92h-1.26l-.82-2.81h-4.29l-.82,2.81ZM12.05,1.35l-1.8,6.15h3.74l-1.82-6.15h-.12Z"/>
      <path class="cls-1" d="m19.12,11.34h-1.22V.42h1.22v10.92Z"/>
      <path class="cls-1" d="m21.07,8.36h1.23v.71c0,.53.19.9.58,1.12.38.22.87.33,1.44.33.54,0,.99-.13,1.35-.39.36-.26.54-.61.54-1.04v-1.05c0-.71-.4-1.24-1.2-1.59l-2.05-.89c-1.18-.51-1.77-1.18-1.77-2.02v-1.13c0-.4.1-.75.29-1.05s.45-.52.77-.68.65-.27.98-.34c.33-.07.68-.11,1.03-.11.82,0,1.53.18,2.13.55s.9.89.9,1.57v.7h-1.22v-.51c0-.46-.18-.8-.55-1-.37-.2-.79-.3-1.28-.3s-.94.11-1.3.34c-.36.23-.54.62-.54,1.16v.36c0,.34.11.63.3.85.19.22.48.42.87.59l1.95.91c.62.29,1.09.59,1.42.9.33.31.49.7.49,1.16v1.73c0,.71-.29,1.26-.88,1.67-.59.4-1.37.61-2.36.61-.3,0-.59-.02-.87-.07s-.56-.13-.84-.25-.52-.26-.73-.43c-.2-.17-.37-.4-.5-.67-.13-.28-.19-.58-.19-.92v-.83Z"/>
      <path class="cls-1" d="m32.6,11.36h-1.22V1.44h-2.97V.41h7.18v1.03h-2.99v9.91Z"/>
      <path class="cls-1" d="m40.48,8.54v-1.05h10.15v1.05h-2.24v3.14h-1.23v-3.14h-3.21v3.14h-1.24v-3.14h-2.24Zm9.38-2.25h-1.24v-1.01c-.66.26-1.6.47-2.83.64s-2.33.26-3.3.26h-1.22V.34h8.59v5.95Zm-7.36-1.18h.47c.79,0,1.76-.09,2.92-.26,1.16-.18,2.07-.39,2.73-.65V1.38h-6.12v3.73Z"/>
      <path class="cls-1" d="m51.93,1.38V.34h6.66v1.05h-2.75v3.18l3.04,6.39h-1.26l-2.41-4.9-2.38,4.9h-1.25l3.03-6.39V1.38h-2.68Zm9.51,10.14h-1.23V.23h1.23v11.29Z"/>
      <path class="cls-1" d="m63.33,3.67v-1h4.08c.15-.38.22-.83.2-1.35h-4.32V.31h5.57v1.14c0,.89-.25,1.76-.76,2.6-.51.84-1.13,1.5-1.88,1.96h-1.67c1.04-.62,1.84-1.4,2.38-2.35h-3.61Zm1.15,4.07v-.96h8.36v2.9h-7.07v1.07h1.74c2.51,0,4.38-.06,5.62-.18v.96c-1.39.11-3.09.17-5.11.17h-3.54v-2.97h7.07v-.99h-7.07Zm4.91-4.25v-1.03h2.23V.23h1.23v5.83h-1.23v-2.57h-2.23Z"/>
      <path class="cls-1" d="m82.96,4.44h-3.72V.31h8.53v1h-7.3v2.14h7.47v.99h-3.75v1.25h4.51v1.02h-10.26v-1.02h4.52v-1.25Zm5.15,5.28c0,.59-.19,1.07-.58,1.43s-.9.54-1.55.54h-4.84c-.64,0-1.15-.18-1.53-.53-.38-.35-.57-.83-.57-1.42s.19-1.07.58-1.43c.38-.36.89-.54,1.53-.54h4.84c.64,0,1.16.18,1.55.54.39.36.58.83.58,1.42Zm-6.72.99h4.37c.79,0,1.18-.33,1.18-.99s-.39-.99-1.18-.99h-4.37c-.77,0-1.15.33-1.15,1s.38.97,1.15.97Z"/>
      <path class="cls-1" d="m95.89,2.17v6.72c0,.67-.31,1.19-.93,1.58s-1.31.58-2.08.58-1.46-.19-2.08-.58c-.61-.39-.92-.92-.92-1.58V2.17c0-.67.31-1.19.92-1.58.61-.39,1.31-.58,2.08-.58.48,0,.94.08,1.39.23.45.15.83.4,1.14.74.32.34.48.74.48,1.2Zm-1.24,6.42V2.47c0-.52-.18-.89-.54-1.12-.36-.22-.77-.34-1.23-.34s-.88.11-1.23.34c-.35.22-.52.6-.52,1.12v6.12c0,.35.1.65.29.88.19.23.41.39.66.46.24.08.52.11.81.11.47,0,.88-.11,1.23-.34.36-.23.54-.6.54-1.11Zm4.33,2.95h-1.23V.23h1.23v4.26h1.65v1.02h-1.65v6.03Z"/>
      <path class="cls-1" d="m101.57,1.38V.34h5.79v5.35h-4.57v4.09c.91,0,1.95-.09,3.12-.28s2.07-.42,2.73-.71v1.08c-.59.26-1.47.48-2.66.67-1.19.19-2.18.29-2.96.29h-1.44v-6.18h4.57V1.38h-4.56Zm9.47,10.14h-1.23V.23h1.23v11.29Z"/>
      <path class="cls-1" d="m117.92,11.36h-1.19V.41h1.25l4.23,8.56V.41h1.19v10.95h-1.23l-4.26-8.56v8.56Z"/>
      <path class="cls-1" d="m130.14.41h1.22v8.94c0,.69-.31,1.23-.94,1.61-.63.38-1.36.58-2.2.58s-1.57-.19-2.19-.58c-.62-.39-.93-.92-.93-1.61V.42h1.21v8.62c0,.39.11.69.32.93.21.23.45.38.71.45s.56.1.88.1c.23,0,.45-.02.66-.06.2-.04.41-.11.61-.21.2-.1.36-.25.48-.46s.18-.46.18-.75V.41Z"/>
      <path class="cls-1" d="m141.23,11.36h-1.18V3.65l-2.5,6.98h-.85l-2.5-6.98v7.71h-1.17V.41h1.13l2.97,8.61,2.97-8.61h1.13v10.95Z"/>
      <path class="cls-1" d="m149.49,2.61v.81c0,.42-.1.81-.29,1.17-.2.36-.49.64-.88.82.51.19.89.46,1.15.83s.4.79.4,1.25v1.22c0,.83-.28,1.48-.83,1.95-.55.46-1.29.7-2.21.7h-3.92V.41h3.49c.98,0,1.74.18,2.28.55s.82.92.82,1.65Zm-1.23.66v-.37c0-.53-.15-.9-.45-1.12-.3-.22-.84-.33-1.62-.33h-2.08v3.48h2.25c.74,0,1.24-.13,1.5-.4.26-.26.4-.68.4-1.25Zm.39,5.45v-1.25c0-1.01-.72-1.52-2.15-1.52h-2.38v4.37h2.43c.66,0,1.18-.14,1.55-.41s.55-.67.55-1.19Z"/>
      <path class="cls-1" d="m157.14,11.36h-5.76V.41h5.76v1.03h-4.55v3.75h4.52v1.03h-4.52v4.09h4.55v1.03Z"/>
      <path class="cls-1" d="m159.8,11.36h-1.21V.41h3.2c.96,0,1.72.2,2.29.6.56.4.84.97.84,1.71v1.84c0,1.04-.38,1.79-1.14,2.24l1.62,4.56h-1.27l-1.43-4.16c-.28.06-.58.1-.91.1h-1.97v4.07Zm3.88-6.84v-1.59c0-.51-.16-.88-.47-1.12-.31-.24-.86-.36-1.64-.36h-1.78v4.81h1.95c.72,0,1.22-.15,1.51-.46.28-.31.43-.74.43-1.28Z"/>
      <path class="cls-1" d="m176.59,11.36h-5.95v-1.17l3.93-5.09c.41-.53.61-1.08.61-1.66v-.7c0-.43-.15-.78-.45-1.06-.3-.28-.76-.43-1.39-.43s-1.05.15-1.35.46-.45.66-.45,1.07v.91h-1.18v-.89c0-.76.28-1.38.84-1.86.56-.48,1.28-.72,2.14-.72s1.61.21,2.17.64c.57.43.85,1.03.85,1.82v.96c0,.69-.22,1.32-.67,1.88l-3.73,4.8h4.63v1.03Z"/>
      <path class="cls-1" d="m183.98,2.43v6.92c0,.7-.29,1.24-.87,1.62-.58.38-1.27.57-2.08.57s-1.49-.19-2.07-.57c-.58-.38-.87-.92-.87-1.62V2.43c0-.7.29-1.24.86-1.62s1.27-.57,2.07-.57,1.5.19,2.08.57c.58.38.87.92.87,1.62Zm-1.21,6.62V2.73c0-.99-.58-1.48-1.73-1.48s-1.72.49-1.72,1.48v6.32c0,.99.57,1.48,1.72,1.48s1.73-.49,1.73-1.48Z"/>
      <path class="cls-1" d="m191.75,11.36h-5.95v-1.17l3.93-5.09c.41-.53.61-1.08.61-1.66v-.7c0-.43-.15-.78-.45-1.06-.3-.28-.76-.43-1.39-.43s-1.05.15-1.35.46-.45.66-.45,1.07v.91h-1.18v-.89c0-.76.28-1.38.84-1.86.56-.48,1.28-.72,2.14-.72s1.61.21,2.17.64c.57.43.85,1.03.85,1.82v.96c0,.69-.22,1.32-.67,1.88l-3.73,4.8h4.63v1.03Z"/>
      <path class="cls-1" d="m194.36,2.8h-1.2c.09-.85.39-1.5.91-1.94.52-.44,1.19-.65,2.03-.64.87,0,1.57.21,2.09.64.52.43.78.98.78,1.64v.83c0,.41-.1.8-.31,1.17-.21.37-.52.67-.94.9.51.21.9.52,1.17.94s.4.87.4,1.34v.93c0,.87-.28,1.58-.85,2.11s-1.42.8-2.57.8c-.79,0-1.45-.23-2-.69-.55-.46-.86-1.1-.92-1.94h1.2c.14,1.07.73,1.6,1.78,1.6.75,0,1.3-.18,1.64-.54.34-.36.51-.82.51-1.4v-.95c0-.46-.18-.85-.52-1.17s-.82-.49-1.42-.5h-.81v-1.02h.73c.62-.02,1.06-.2,1.32-.54.26-.34.4-.73.4-1.19v-.45c0-.47-.15-.84-.45-1.11-.3-.26-.75-.4-1.34-.4-.48,0-.86.14-1.13.42-.27.28-.43.66-.49,1.14Z"/>
      <path class="cls-1" d="m210.01.34v2.88c0,.83-.1,1.64-.31,2.43-.2.79-.48,1.52-.84,2.18-.35.66-.72,1.24-1.1,1.75s-.79.98-1.22,1.41h-1.56c1.14-1.07,2.06-2.27,2.75-3.59.7-1.32,1.05-2.68,1.05-4.07v-1.94h-4.5V.34h5.73Zm3.37,11.2h-1.23V.23h1.23v4.27h1.65v1.03h-1.65v6Z"/>
      <path class="cls-1" d="m215.74,6.22v-1h10.27v1h-10.27Zm7.49-1.89h-4.72c-.67,0-1.22-.19-1.65-.56s-.64-.88-.64-1.51.21-1.14.64-1.53c.43-.39.97-.58,1.65-.58h4.72c.67,0,1.22.19,1.65.58.42.39.64.89.64,1.53s-.21,1.14-.64,1.52c-.43.38-.97.57-1.65.57Zm-6.63,3.74v-.93h8.54v2.69h-7.3v.94h1.38c3,0,5.07-.07,6.22-.22v.91c-.7.08-1.44.14-2.21.17-.78.04-1.49.05-2.15.05-.65,0-1.37,0-2.15,0h-2.33v-2.77h7.3v-.85h-7.3Zm2.06-4.73h4.09c1.07,0,1.6-.36,1.6-1.09,0-.43-.14-.73-.43-.88-.29-.16-.68-.23-1.17-.23h-3.74c-.49,0-.88.08-1.16.23-.28.16-.43.45-.43.88,0,.31.1.57.31.78.2.21.52.31.93.31Z"/>
      <path class="cls-1" d="m233.78,1.34h-2.57V.31h6.41v1.02h-2.61v1.36l2.92,3.74h-1.43l-2.13-2.62-2.16,2.68h-1.44l3.02-3.8v-1.36Zm7.23,8.18c0,.61-.2,1.12-.59,1.54-.4.42-.91.63-1.53.63h-4.75c-.62,0-1.13-.2-1.52-.61s-.58-.92-.58-1.54.19-1.13.58-1.55.9-.64,1.52-.64h4.75c.62,0,1.14.21,1.53.64.4.43.59.94.59,1.54Zm-6.63,1.17h4.27c.4,0,.7-.11.89-.34s.29-.5.29-.83-.09-.63-.28-.84c-.19-.22-.49-.32-.9-.32h-4.27c-.4,0-.7.11-.88.33-.19.22-.28.5-.28.84s.1.62.29.84c.19.22.49.33.88.33Zm6.39-3.9h-1.24v-3.18h-2.2v-1.03h2.2V.23h1.24v6.56Z"/>
      <path class="cls-1" d="m242.41,1.4V.34h5.83v2.89c0,.82-.11,1.62-.33,2.42-.22.79-.51,1.52-.88,2.18-.37.66-.75,1.24-1.13,1.74-.38.51-.8.98-1.24,1.42h-1.58c1.16-1.1,2.11-2.3,2.83-3.61.72-1.31,1.09-2.65,1.09-4.04v-1.94h-4.61Zm9.46,10.13h-1.24V.23h1.24v11.29Z"/>
      <path class="cls-1" d="m253.76,6.44v-1.03h3.95v-2.26h1.24v2.26h5.09v1.03h-10.27Zm7.55,5.24h-4.84c-.63,0-1.15-.2-1.53-.59s-.58-.89-.58-1.5.19-1.11.58-1.5.9-.59,1.53-.59h4.84c.63,0,1.14.2,1.53.59s.58.89.58,1.49-.19,1.12-.58,1.52-.9.59-1.53.59Zm-6.75-10.34V.31h8.67v1.49c0,1.3-.15,2.28-.46,2.95h-1.25c.12-.24.23-.64.33-1.2.1-.56.15-1.12.15-1.68v-.53h-7.45Zm2.15,9.37h4.37c.4,0,.7-.11.89-.32s.29-.48.29-.81-.1-.61-.3-.81c-.2-.2-.49-.3-.88-.3h-4.04c-.99,0-1.48.37-1.48,1.11,0,.34.1.61.3.82.2.21.49.31.85.31Z"/>
      <path class="cls-1" d="m271.34,2.15v2.91c0,.69-.3,1.22-.89,1.59s-1.29.56-2.08.56-1.48-.19-2.07-.56-.88-.9-.88-1.59v-2.91c0-.69.29-1.22.88-1.59s1.28-.56,2.07-.56c.51,0,.98.07,1.41.22.44.14.81.38,1.11.72.3.34.45.74.45,1.21Zm-4.81,9.48v-3.68h1.23v2.63h.83c1,0,2.2-.09,3.58-.26s2.43-.38,3.13-.61v1.08c-.65.22-1.69.42-3.12.59-1.43.17-2.67.25-3.72.25h-1.92Zm3.58-6.87v-2.31c0-.28-.05-.52-.16-.72-.11-.2-.25-.35-.43-.45-.18-.1-.36-.17-.55-.21-.18-.04-.38-.06-.6-.06-.48,0-.89.11-1.23.32-.34.21-.51.59-.51,1.12v2.31c0,.36.09.66.28.88.19.23.4.38.64.45s.51.11.81.11c.21,0,.41-.02.6-.07.19-.04.37-.12.55-.22.18-.1.33-.25.43-.45.11-.2.16-.43.16-.72Zm1.85-1.92v-1.03h1.83V.23h1.23v8.12h-1.23v-2.71h-1.83v-1.02h1.83v-1.78h-1.83Z"/>
    </g>
  </g>
</svg>